<?xml version="1.0" encoding="utf-8" standalone="no"?>
<!DOCTYPE svg PUBLIC "-//W3C//DTD SVG 1.1//EN"
  "http://www.w3.org/Graphics/SVG/1.1/DTD/svg11.dtd">
<svg height="288pt" version="1.1" viewBox="0 0 432 288" width="432pt" xmlns="http://www.w3.org/2000/svg" xmlns:xlink="http://www.w3.org/1999/xlink">
 <metadata>
  <rdf:RDF xmlns:cc="http://creativecommons.org/ns#" xmlns:dc="http://purl.org/dc/elements/1.1/" xmlns:rdf="http://www.w3.org/1999/02/22-rdf-syntax-ns#">
   <cc:Work>
    <dc:type rdf:resource="http://purl.org/dc/dcmitype/StillImage"/>
    <dc:date>2021-10-29T00:37:52.105527</dc:date>
    <dc:format>image/svg+xml</dc:format>
    <dc:creator>
     <cc:Agent>
      <dc:title>Matplotlib v3.4.2, https://matplotlib.org/</dc:title>
     </cc:Agent>
    </dc:creator>
   </cc:Work>
  </rdf:RDF>
 </metadata>
 <defs>
  <style type="text/css">*{stroke-linecap:butt;stroke-linejoin:round;}</style>
 </defs>
 <g id="figure_1">
  <g id="patch_1">
   <path d="M 0 288 
L 432 288 
L 432 0 
L 0 0 
z
" style="fill:none;"/>
  </g>
  <g id="axes_1">
   <g id="patch_2">
    <path d="M 54 252 
L 388.8 252 
L 388.8 34.56 
L 54 34.56 
z
" style="fill:#ffffff;"/>
   </g>
   <g id="matplotlib.axis_1">
    <g id="xtick_1">
     <g id="line2d_1">
      <defs>
       <path d="M 0 0 
L 0 3.5 
" id="mbe96b4505b" style="stroke:#000000;stroke-width:0.8;"/>
      </defs>
      <g>
       <use style="stroke:#000000;stroke-width:0.8;" x="54" xlink:href="#mbe96b4505b" y="252"/>
      </g>
     </g>
     <g id="text_1">
      <!-- 00:00:00.0 -->
      <g transform="translate(26.773438 266.598437)scale(0.1 -0.1)">
       <defs>
        <path d="M 2034 4250 
Q 1547 4250 1301 3770 
Q 1056 3291 1056 2328 
Q 1056 1369 1301 889 
Q 1547 409 2034 409 
Q 2525 409 2770 889 
Q 3016 1369 3016 2328 
Q 3016 3291 2770 3770 
Q 2525 4250 2034 4250 
z
M 2034 4750 
Q 2819 4750 3233 4129 
Q 3647 3509 3647 2328 
Q 3647 1150 3233 529 
Q 2819 -91 2034 -91 
Q 1250 -91 836 529 
Q 422 1150 422 2328 
Q 422 3509 836 4129 
Q 1250 4750 2034 4750 
z
" id="DejaVuSans-30" transform="scale(0.015625)"/>
        <path d="M 750 794 
L 1409 794 
L 1409 0 
L 750 0 
L 750 794 
z
M 750 3309 
L 1409 3309 
L 1409 2516 
L 750 2516 
L 750 3309 
z
" id="DejaVuSans-3a" transform="scale(0.015625)"/>
        <path d="M 684 794 
L 1344 794 
L 1344 0 
L 684 0 
L 684 794 
z
" id="DejaVuSans-2e" transform="scale(0.015625)"/>
       </defs>
       <use xlink:href="#DejaVuSans-30"/>
       <use x="63.623047" xlink:href="#DejaVuSans-30"/>
       <use x="127.246094" xlink:href="#DejaVuSans-3a"/>
       <use x="160.9375" xlink:href="#DejaVuSans-30"/>
       <use x="224.560547" xlink:href="#DejaVuSans-30"/>
       <use x="288.183594" xlink:href="#DejaVuSans-3a"/>
       <use x="321.875" xlink:href="#DejaVuSans-30"/>
       <use x="385.498047" xlink:href="#DejaVuSans-30"/>
       <use x="449.121094" xlink:href="#DejaVuSans-2e"/>
       <use x="480.908203" xlink:href="#DejaVuSans-30"/>
      </g>
     </g>
    </g>
    <g id="xtick_2">
     <g id="line2d_2">
      <g>
       <use style="stroke:#000000;stroke-width:0.8;" x="109.893155" xlink:href="#mbe96b4505b" y="252"/>
      </g>
     </g>
     <g id="text_2">
      <!-- 00:00:10.0 -->
      <g transform="translate(82.666593 266.598437)scale(0.1 -0.1)">
       <defs>
        <path d="M 794 531 
L 1825 531 
L 1825 4091 
L 703 3866 
L 703 4441 
L 1819 4666 
L 2450 4666 
L 2450 531 
L 3481 531 
L 3481 0 
L 794 0 
L 794 531 
z
" id="DejaVuSans-31" transform="scale(0.015625)"/>
       </defs>
       <use xlink:href="#DejaVuSans-30"/>
       <use x="63.623047" xlink:href="#DejaVuSans-30"/>
       <use x="127.246094" xlink:href="#DejaVuSans-3a"/>
       <use x="160.9375" xlink:href="#DejaVuSans-30"/>
       <use x="224.560547" xlink:href="#DejaVuSans-30"/>
       <use x="288.183594" xlink:href="#DejaVuSans-3a"/>
       <use x="321.875" xlink:href="#DejaVuSans-31"/>
       <use x="385.498047" xlink:href="#DejaVuSans-30"/>
       <use x="449.121094" xlink:href="#DejaVuSans-2e"/>
       <use x="480.908203" xlink:href="#DejaVuSans-30"/>
      </g>
     </g>
    </g>
    <g id="xtick_3">
     <g id="line2d_3">
      <g>
       <use style="stroke:#000000;stroke-width:0.8;" x="165.786311" xlink:href="#mbe96b4505b" y="252"/>
      </g>
     </g>
     <g id="text_3">
      <!-- 00:00:20.0 -->
      <g transform="translate(138.559748 266.598437)scale(0.1 -0.1)">
       <defs>
        <path d="M 1228 531 
L 3431 531 
L 3431 0 
L 469 0 
L 469 531 
Q 828 903 1448 1529 
Q 2069 2156 2228 2338 
Q 2531 2678 2651 2914 
Q 2772 3150 2772 3378 
Q 2772 3750 2511 3984 
Q 2250 4219 1831 4219 
Q 1534 4219 1204 4116 
Q 875 4013 500 3803 
L 500 4441 
Q 881 4594 1212 4672 
Q 1544 4750 1819 4750 
Q 2544 4750 2975 4387 
Q 3406 4025 3406 3419 
Q 3406 3131 3298 2873 
Q 3191 2616 2906 2266 
Q 2828 2175 2409 1742 
Q 1991 1309 1228 531 
z
" id="DejaVuSans-32" transform="scale(0.015625)"/>
       </defs>
       <use xlink:href="#DejaVuSans-30"/>
       <use x="63.623047" xlink:href="#DejaVuSans-30"/>
       <use x="127.246094" xlink:href="#DejaVuSans-3a"/>
       <use x="160.9375" xlink:href="#DejaVuSans-30"/>
       <use x="224.560547" xlink:href="#DejaVuSans-30"/>
       <use x="288.183594" xlink:href="#DejaVuSans-3a"/>
       <use x="321.875" xlink:href="#DejaVuSans-32"/>
       <use x="385.498047" xlink:href="#DejaVuSans-30"/>
       <use x="449.121094" xlink:href="#DejaVuSans-2e"/>
       <use x="480.908203" xlink:href="#DejaVuSans-30"/>
      </g>
     </g>
    </g>
    <g id="xtick_4">
     <g id="line2d_4">
      <g>
       <use style="stroke:#000000;stroke-width:0.8;" x="221.679466" xlink:href="#mbe96b4505b" y="252"/>
      </g>
     </g>
     <g id="text_4">
      <!-- 00:00:30.0 -->
      <g transform="translate(194.452903 266.598437)scale(0.1 -0.1)">
       <defs>
        <path d="M 2597 2516 
Q 3050 2419 3304 2112 
Q 3559 1806 3559 1356 
Q 3559 666 3084 287 
Q 2609 -91 1734 -91 
Q 1441 -91 1130 -33 
Q 819 25 488 141 
L 488 750 
Q 750 597 1062 519 
Q 1375 441 1716 441 
Q 2309 441 2620 675 
Q 2931 909 2931 1356 
Q 2931 1769 2642 2001 
Q 2353 2234 1838 2234 
L 1294 2234 
L 1294 2753 
L 1863 2753 
Q 2328 2753 2575 2939 
Q 2822 3125 2822 3475 
Q 2822 3834 2567 4026 
Q 2313 4219 1838 4219 
Q 1578 4219 1281 4162 
Q 984 4106 628 3988 
L 628 4550 
Q 988 4650 1302 4700 
Q 1616 4750 1894 4750 
Q 2613 4750 3031 4423 
Q 3450 4097 3450 3541 
Q 3450 3153 3228 2886 
Q 3006 2619 2597 2516 
z
" id="DejaVuSans-33" transform="scale(0.015625)"/>
       </defs>
       <use xlink:href="#DejaVuSans-30"/>
       <use x="63.623047" xlink:href="#DejaVuSans-30"/>
       <use x="127.246094" xlink:href="#DejaVuSans-3a"/>
       <use x="160.9375" xlink:href="#DejaVuSans-30"/>
       <use x="224.560547" xlink:href="#DejaVuSans-30"/>
       <use x="288.183594" xlink:href="#DejaVuSans-3a"/>
       <use x="321.875" xlink:href="#DejaVuSans-33"/>
       <use x="385.498047" xlink:href="#DejaVuSans-30"/>
       <use x="449.121094" xlink:href="#DejaVuSans-2e"/>
       <use x="480.908203" xlink:href="#DejaVuSans-30"/>
      </g>
     </g>
    </g>
    <g id="xtick_5">
     <g id="line2d_5">
      <g>
       <use style="stroke:#000000;stroke-width:0.8;" x="277.572621" xlink:href="#mbe96b4505b" y="252"/>
      </g>
     </g>
     <g id="text_5">
      <!-- 00:00:40.0 -->
      <g transform="translate(250.346059 266.598437)scale(0.1 -0.1)">
       <defs>
        <path d="M 2419 4116 
L 825 1625 
L 2419 1625 
L 2419 4116 
z
M 2253 4666 
L 3047 4666 
L 3047 1625 
L 3713 1625 
L 3713 1100 
L 3047 1100 
L 3047 0 
L 2419 0 
L 2419 1100 
L 313 1100 
L 313 1709 
L 2253 4666 
z
" id="DejaVuSans-34" transform="scale(0.015625)"/>
       </defs>
       <use xlink:href="#DejaVuSans-30"/>
       <use x="63.623047" xlink:href="#DejaVuSans-30"/>
       <use x="127.246094" xlink:href="#DejaVuSans-3a"/>
       <use x="160.9375" xlink:href="#DejaVuSans-30"/>
       <use x="224.560547" xlink:href="#DejaVuSans-30"/>
       <use x="288.183594" xlink:href="#DejaVuSans-3a"/>
       <use x="321.875" xlink:href="#DejaVuSans-34"/>
       <use x="385.498047" xlink:href="#DejaVuSans-30"/>
       <use x="449.121094" xlink:href="#DejaVuSans-2e"/>
       <use x="480.908203" xlink:href="#DejaVuSans-30"/>
      </g>
     </g>
    </g>
    <g id="xtick_6">
     <g id="line2d_6">
      <g>
       <use style="stroke:#000000;stroke-width:0.8;" x="333.465776" xlink:href="#mbe96b4505b" y="252"/>
      </g>
     </g>
     <g id="text_6">
      <!-- 00:00:50.0 -->
      <g transform="translate(306.239214 266.598437)scale(0.1 -0.1)">
       <defs>
        <path d="M 691 4666 
L 3169 4666 
L 3169 4134 
L 1269 4134 
L 1269 2991 
Q 1406 3038 1543 3061 
Q 1681 3084 1819 3084 
Q 2600 3084 3056 2656 
Q 3513 2228 3513 1497 
Q 3513 744 3044 326 
Q 2575 -91 1722 -91 
Q 1428 -91 1123 -41 
Q 819 9 494 109 
L 494 744 
Q 775 591 1075 516 
Q 1375 441 1709 441 
Q 2250 441 2565 725 
Q 2881 1009 2881 1497 
Q 2881 1984 2565 2268 
Q 2250 2553 1709 2553 
Q 1456 2553 1204 2497 
Q 953 2441 691 2322 
L 691 4666 
z
" id="DejaVuSans-35" transform="scale(0.015625)"/>
       </defs>
       <use xlink:href="#DejaVuSans-30"/>
       <use x="63.623047" xlink:href="#DejaVuSans-30"/>
       <use x="127.246094" xlink:href="#DejaVuSans-3a"/>
       <use x="160.9375" xlink:href="#DejaVuSans-30"/>
       <use x="224.560547" xlink:href="#DejaVuSans-30"/>
       <use x="288.183594" xlink:href="#DejaVuSans-3a"/>
       <use x="321.875" xlink:href="#DejaVuSans-35"/>
       <use x="385.498047" xlink:href="#DejaVuSans-30"/>
       <use x="449.121094" xlink:href="#DejaVuSans-2e"/>
       <use x="480.908203" xlink:href="#DejaVuSans-30"/>
      </g>
     </g>
    </g>
    <g id="text_7">
     <!-- time -->
     <g transform="translate(210.103906 280.276563)scale(0.1 -0.1)">
      <defs>
       <path d="M 1172 4494 
L 1172 3500 
L 2356 3500 
L 2356 3053 
L 1172 3053 
L 1172 1153 
Q 1172 725 1289 603 
Q 1406 481 1766 481 
L 2356 481 
L 2356 0 
L 1766 0 
Q 1100 0 847 248 
Q 594 497 594 1153 
L 594 3053 
L 172 3053 
L 172 3500 
L 594 3500 
L 594 4494 
L 1172 4494 
z
" id="DejaVuSans-74" transform="scale(0.015625)"/>
       <path d="M 603 3500 
L 1178 3500 
L 1178 0 
L 603 0 
L 603 3500 
z
M 603 4863 
L 1178 4863 
L 1178 4134 
L 603 4134 
L 603 4863 
z
" id="DejaVuSans-69" transform="scale(0.015625)"/>
       <path d="M 3328 2828 
Q 3544 3216 3844 3400 
Q 4144 3584 4550 3584 
Q 5097 3584 5394 3201 
Q 5691 2819 5691 2113 
L 5691 0 
L 5113 0 
L 5113 2094 
Q 5113 2597 4934 2840 
Q 4756 3084 4391 3084 
Q 3944 3084 3684 2787 
Q 3425 2491 3425 1978 
L 3425 0 
L 2847 0 
L 2847 2094 
Q 2847 2600 2669 2842 
Q 2491 3084 2119 3084 
Q 1678 3084 1418 2786 
Q 1159 2488 1159 1978 
L 1159 0 
L 581 0 
L 581 3500 
L 1159 3500 
L 1159 2956 
Q 1356 3278 1631 3431 
Q 1906 3584 2284 3584 
Q 2666 3584 2933 3390 
Q 3200 3197 3328 2828 
z
" id="DejaVuSans-6d" transform="scale(0.015625)"/>
       <path d="M 3597 1894 
L 3597 1613 
L 953 1613 
Q 991 1019 1311 708 
Q 1631 397 2203 397 
Q 2534 397 2845 478 
Q 3156 559 3463 722 
L 3463 178 
Q 3153 47 2828 -22 
Q 2503 -91 2169 -91 
Q 1331 -91 842 396 
Q 353 884 353 1716 
Q 353 2575 817 3079 
Q 1281 3584 2069 3584 
Q 2775 3584 3186 3129 
Q 3597 2675 3597 1894 
z
M 3022 2063 
Q 3016 2534 2758 2815 
Q 2500 3097 2075 3097 
Q 1594 3097 1305 2825 
Q 1016 2553 972 2059 
L 3022 2063 
z
" id="DejaVuSans-65" transform="scale(0.015625)"/>
      </defs>
      <use xlink:href="#DejaVuSans-74"/>
      <use x="39.208984" xlink:href="#DejaVuSans-69"/>
      <use x="66.992188" xlink:href="#DejaVuSans-6d"/>
      <use x="164.404297" xlink:href="#DejaVuSans-65"/>
     </g>
    </g>
   </g>
   <g id="matplotlib.axis_2">
    <g id="ytick_1">
     <g id="line2d_7">
      <defs>
       <path d="M 0 0 
L -3.5 0 
" id="md074a55e2e" style="stroke:#000000;stroke-width:0.8;"/>
      </defs>
      <g>
       <use style="stroke:#000000;stroke-width:0.8;" x="54" xlink:href="#md074a55e2e" y="247.642023"/>
      </g>
     </g>
     <g id="text_8">
      <!-- 0 -->
      <g transform="translate(40.6375 251.441242)scale(0.1 -0.1)">
       <use xlink:href="#DejaVuSans-30"/>
      </g>
     </g>
    </g>
    <g id="ytick_2">
     <g id="line2d_8">
      <g>
       <use style="stroke:#000000;stroke-width:0.8;" x="54" xlink:href="#md074a55e2e" y="200.293367"/>
      </g>
     </g>
     <g id="text_9">
      <!-- 5 -->
      <g transform="translate(40.6375 204.092586)scale(0.1 -0.1)">
       <use xlink:href="#DejaVuSans-35"/>
      </g>
     </g>
    </g>
    <g id="ytick_3">
     <g id="line2d_9">
      <g>
       <use style="stroke:#000000;stroke-width:0.8;" x="54" xlink:href="#md074a55e2e" y="152.944711"/>
      </g>
     </g>
     <g id="text_10">
      <!-- 10 -->
      <g transform="translate(34.275 156.74393)scale(0.1 -0.1)">
       <use xlink:href="#DejaVuSans-31"/>
       <use x="63.623047" xlink:href="#DejaVuSans-30"/>
      </g>
     </g>
    </g>
    <g id="ytick_4">
     <g id="line2d_10">
      <g>
       <use style="stroke:#000000;stroke-width:0.8;" x="54" xlink:href="#md074a55e2e" y="105.596055"/>
      </g>
     </g>
     <g id="text_11">
      <!-- 15 -->
      <g transform="translate(34.275 109.395274)scale(0.1 -0.1)">
       <use xlink:href="#DejaVuSans-31"/>
       <use x="63.623047" xlink:href="#DejaVuSans-35"/>
      </g>
     </g>
    </g>
    <g id="ytick_5">
     <g id="line2d_11">
      <g>
       <use style="stroke:#000000;stroke-width:0.8;" x="54" xlink:href="#md074a55e2e" y="58.2474"/>
      </g>
     </g>
     <g id="text_12">
      <!-- 20 -->
      <g transform="translate(34.275 62.046618)scale(0.1 -0.1)">
       <use xlink:href="#DejaVuSans-32"/>
       <use x="63.623047" xlink:href="#DejaVuSans-30"/>
      </g>
     </g>
    </g>
    <g id="text_13">
     <!-- Cluster memory (GiB) -->
     <g transform="translate(28.195312 197.690938)rotate(-90)scale(0.1 -0.1)">
      <defs>
       <path d="M 4122 4306 
L 4122 3641 
Q 3803 3938 3442 4084 
Q 3081 4231 2675 4231 
Q 1875 4231 1450 3742 
Q 1025 3253 1025 2328 
Q 1025 1406 1450 917 
Q 1875 428 2675 428 
Q 3081 428 3442 575 
Q 3803 722 4122 1019 
L 4122 359 
Q 3791 134 3420 21 
Q 3050 -91 2638 -91 
Q 1578 -91 968 557 
Q 359 1206 359 2328 
Q 359 3453 968 4101 
Q 1578 4750 2638 4750 
Q 3056 4750 3426 4639 
Q 3797 4528 4122 4306 
z
" id="DejaVuSans-43" transform="scale(0.015625)"/>
       <path d="M 603 4863 
L 1178 4863 
L 1178 0 
L 603 0 
L 603 4863 
z
" id="DejaVuSans-6c" transform="scale(0.015625)"/>
       <path d="M 544 1381 
L 544 3500 
L 1119 3500 
L 1119 1403 
Q 1119 906 1312 657 
Q 1506 409 1894 409 
Q 2359 409 2629 706 
Q 2900 1003 2900 1516 
L 2900 3500 
L 3475 3500 
L 3475 0 
L 2900 0 
L 2900 538 
Q 2691 219 2414 64 
Q 2138 -91 1772 -91 
Q 1169 -91 856 284 
Q 544 659 544 1381 
z
M 1991 3584 
L 1991 3584 
z
" id="DejaVuSans-75" transform="scale(0.015625)"/>
       <path d="M 2834 3397 
L 2834 2853 
Q 2591 2978 2328 3040 
Q 2066 3103 1784 3103 
Q 1356 3103 1142 2972 
Q 928 2841 928 2578 
Q 928 2378 1081 2264 
Q 1234 2150 1697 2047 
L 1894 2003 
Q 2506 1872 2764 1633 
Q 3022 1394 3022 966 
Q 3022 478 2636 193 
Q 2250 -91 1575 -91 
Q 1294 -91 989 -36 
Q 684 19 347 128 
L 347 722 
Q 666 556 975 473 
Q 1284 391 1588 391 
Q 1994 391 2212 530 
Q 2431 669 2431 922 
Q 2431 1156 2273 1281 
Q 2116 1406 1581 1522 
L 1381 1569 
Q 847 1681 609 1914 
Q 372 2147 372 2553 
Q 372 3047 722 3315 
Q 1072 3584 1716 3584 
Q 2034 3584 2315 3537 
Q 2597 3491 2834 3397 
z
" id="DejaVuSans-73" transform="scale(0.015625)"/>
       <path d="M 2631 2963 
Q 2534 3019 2420 3045 
Q 2306 3072 2169 3072 
Q 1681 3072 1420 2755 
Q 1159 2438 1159 1844 
L 1159 0 
L 581 0 
L 581 3500 
L 1159 3500 
L 1159 2956 
Q 1341 3275 1631 3429 
Q 1922 3584 2338 3584 
Q 2397 3584 2469 3576 
Q 2541 3569 2628 3553 
L 2631 2963 
z
" id="DejaVuSans-72" transform="scale(0.015625)"/>
       <path id="DejaVuSans-20" transform="scale(0.015625)"/>
       <path d="M 1959 3097 
Q 1497 3097 1228 2736 
Q 959 2375 959 1747 
Q 959 1119 1226 758 
Q 1494 397 1959 397 
Q 2419 397 2687 759 
Q 2956 1122 2956 1747 
Q 2956 2369 2687 2733 
Q 2419 3097 1959 3097 
z
M 1959 3584 
Q 2709 3584 3137 3096 
Q 3566 2609 3566 1747 
Q 3566 888 3137 398 
Q 2709 -91 1959 -91 
Q 1206 -91 779 398 
Q 353 888 353 1747 
Q 353 2609 779 3096 
Q 1206 3584 1959 3584 
z
" id="DejaVuSans-6f" transform="scale(0.015625)"/>
       <path d="M 2059 -325 
Q 1816 -950 1584 -1140 
Q 1353 -1331 966 -1331 
L 506 -1331 
L 506 -850 
L 844 -850 
Q 1081 -850 1212 -737 
Q 1344 -625 1503 -206 
L 1606 56 
L 191 3500 
L 800 3500 
L 1894 763 
L 2988 3500 
L 3597 3500 
L 2059 -325 
z
" id="DejaVuSans-79" transform="scale(0.015625)"/>
       <path d="M 1984 4856 
Q 1566 4138 1362 3434 
Q 1159 2731 1159 2009 
Q 1159 1288 1364 580 
Q 1569 -128 1984 -844 
L 1484 -844 
Q 1016 -109 783 600 
Q 550 1309 550 2009 
Q 550 2706 781 3412 
Q 1013 4119 1484 4856 
L 1984 4856 
z
" id="DejaVuSans-28" transform="scale(0.015625)"/>
       <path d="M 3809 666 
L 3809 1919 
L 2778 1919 
L 2778 2438 
L 4434 2438 
L 4434 434 
Q 4069 175 3628 42 
Q 3188 -91 2688 -91 
Q 1594 -91 976 548 
Q 359 1188 359 2328 
Q 359 3472 976 4111 
Q 1594 4750 2688 4750 
Q 3144 4750 3555 4637 
Q 3966 4525 4313 4306 
L 4313 3634 
Q 3963 3931 3569 4081 
Q 3175 4231 2741 4231 
Q 1884 4231 1454 3753 
Q 1025 3275 1025 2328 
Q 1025 1384 1454 906 
Q 1884 428 2741 428 
Q 3075 428 3337 486 
Q 3600 544 3809 666 
z
" id="DejaVuSans-47" transform="scale(0.015625)"/>
       <path d="M 1259 2228 
L 1259 519 
L 2272 519 
Q 2781 519 3026 730 
Q 3272 941 3272 1375 
Q 3272 1813 3026 2020 
Q 2781 2228 2272 2228 
L 1259 2228 
z
M 1259 4147 
L 1259 2741 
L 2194 2741 
Q 2656 2741 2882 2914 
Q 3109 3088 3109 3444 
Q 3109 3797 2882 3972 
Q 2656 4147 2194 4147 
L 1259 4147 
z
M 628 4666 
L 2241 4666 
Q 2963 4666 3353 4366 
Q 3744 4066 3744 3513 
Q 3744 3084 3544 2831 
Q 3344 2578 2956 2516 
Q 3422 2416 3680 2098 
Q 3938 1781 3938 1306 
Q 3938 681 3513 340 
Q 3088 0 2303 0 
L 628 0 
L 628 4666 
z
" id="DejaVuSans-42" transform="scale(0.015625)"/>
       <path d="M 513 4856 
L 1013 4856 
Q 1481 4119 1714 3412 
Q 1947 2706 1947 2009 
Q 1947 1309 1714 600 
Q 1481 -109 1013 -844 
L 513 -844 
Q 928 -128 1133 580 
Q 1338 1288 1338 2009 
Q 1338 2731 1133 3434 
Q 928 4138 513 4856 
z
" id="DejaVuSans-29" transform="scale(0.015625)"/>
      </defs>
      <use xlink:href="#DejaVuSans-43"/>
      <use x="69.824219" xlink:href="#DejaVuSans-6c"/>
      <use x="97.607422" xlink:href="#DejaVuSans-75"/>
      <use x="160.986328" xlink:href="#DejaVuSans-73"/>
      <use x="213.085938" xlink:href="#DejaVuSans-74"/>
      <use x="252.294922" xlink:href="#DejaVuSans-65"/>
      <use x="313.818359" xlink:href="#DejaVuSans-72"/>
      <use x="354.931641" xlink:href="#DejaVuSans-20"/>
      <use x="386.71875" xlink:href="#DejaVuSans-6d"/>
      <use x="484.130859" xlink:href="#DejaVuSans-65"/>
      <use x="545.654297" xlink:href="#DejaVuSans-6d"/>
      <use x="643.066406" xlink:href="#DejaVuSans-6f"/>
      <use x="704.248047" xlink:href="#DejaVuSans-72"/>
      <use x="745.361328" xlink:href="#DejaVuSans-79"/>
      <use x="804.541016" xlink:href="#DejaVuSans-20"/>
      <use x="836.328125" xlink:href="#DejaVuSans-28"/>
      <use x="875.341797" xlink:href="#DejaVuSans-47"/>
      <use x="952.832031" xlink:href="#DejaVuSans-69"/>
      <use x="980.615234" xlink:href="#DejaVuSans-42"/>
      <use x="1049.21875" xlink:href="#DejaVuSans-29"/>
     </g>
    </g>
   </g>
   <g id="line2d_12">
    <path clip-path="url(#p581f798560)" d="M 54 242.116364 
L 57.353589 242.116364 
L 57.912521 232.894372 
L 59.589316 232.894372 
L 60.148247 228.028123 
L 62.942905 228.028123 
L 63.501836 221.912014 
L 70.209015 221.912014 
L 70.767947 221.529134 
L 71.88581 221.529134 
L 72.444741 220.758533 
L 74.680467 220.758533 
L 75.239399 213.775625 
L 76.357262 213.775625 
L 76.916194 210.388986 
L 79.710851 210.388986 
L 80.269783 201.357946 
L 81.946578 201.357946 
L 82.505509 196.842426 
L 84.741235 196.842426 
L 85.300167 186.682507 
L 87.535893 186.682507 
L 88.094825 179.909228 
L 90.330551 179.909228 
L 90.889482 172.007068 
L 93.125209 172.007068 
L 93.68414 161.847149 
L 95.919866 161.847149 
L 96.478798 155.073869 
L 98.714524 155.073869 
L 99.273456 147.17171 
L 100.95025 147.17171 
L 101.509182 140.39843 
L 104.30384 140.39843 
L 104.862771 138.14067 
L 112.687813 138.14067 
L 113.246745 132.496271 
L 116.041402 132.496271 
L 116.600334 130.238511 
L 117.718197 130.238511 
L 118.277129 121.207471 
L 120.512855 121.207471 
L 121.071786 118.949712 
L 123.866444 118.949712 
L 124.425376 117.820832 
L 141.193322 117.820832 
L 141.752254 115.563072 
L 143.429048 115.563072 
L 143.98798 113.305312 
L 146.223706 113.305312 
L 146.782638 105.403152 
L 148.459432 105.403152 
L 149.018364 103.145393 
L 151.813022 103.145393 
L 152.371953 98.629873 
L 154.048748 98.629873 
L 154.607679 92.985473 
L 156.843406 92.985473 
L 157.402337 87.341074 
L 159.638063 87.341074 
L 160.196995 83.954434 
L 162.432721 83.954434 
L 162.991653 82.825554 
L 165.227379 82.825554 
L 165.786311 81.696674 
L 170.816694 81.696674 
L 171.375626 80.567794 
L 176.40601 80.567794 
L 176.964942 72.665635 
L 180.318531 72.665635 
L 180.877462 71.536755 
L 181.995326 71.536755 
L 182.554257 69.278995 
L 185.348915 69.278995 
L 185.907846 74.923394 
L 187.584641 74.923394 
L 188.143573 72.665635 
L 190.379299 72.665635 
L 190.93823 71.536755 
L 193.173957 71.536755 
L 193.732888 70.407875 
L 196.527546 70.407875 
L 197.086477 68.150115 
L 198.763272 68.150115 
L 199.322204 65.892355 
L 201.55793 65.892355 
L 202.116861 60.247955 
L 204.911519 60.247955 
L 205.470451 56.861316 
L 207.706177 56.861316 
L 208.265109 53.474676 
L 210.500835 53.474676 
L 211.059766 50.088036 
L 215.531219 50.088036 
L 216.09015 55.732436 
L 218.325876 55.732436 
L 218.884808 50.088036 
L 224.474124 50.088036 
L 225.033055 47.830276 
L 226.70985 47.830276 
L 227.268781 44.443636 
L 229.504508 44.443636 
L 230.063439 50.088036 
L 232.299165 50.088036 
L 232.858097 55.732436 
L 238.447412 55.732436 
L 239.006344 51.216916 
L 241.24207 51.216916 
L 241.801002 47.830276 
L 243.477796 47.830276 
L 244.036728 44.443636 
L 246.831386 44.443636 
L 247.390317 47.830276 
L 251.86177 47.830276 
L 252.420701 45.572516 
L 254.656427 45.572516 
L 255.215359 51.216916 
L 258.010017 51.216916 
L 258.568948 48.959156 
L 260.245743 48.959156 
L 260.804674 52.345796 
L 265.835058 52.345796 
L 266.39399 48.959156 
L 269.188648 48.959156 
L 269.747579 47.830276 
L 271.983306 47.830276 
L 272.542237 50.088036 
L 274.777963 50.088036 
L 275.336895 54.603555 
L 277.572621 54.603555 
L 278.131553 53.474675 
L 280.367279 53.474675 
L 280.92621 55.732435 
L 283.161937 55.732435 
L 283.720868 59.119075 
L 285.956594 59.119075 
L 286.515526 54.603555 
L 288.751252 54.603555 
L 289.310184 52.345795 
L 291.54591 52.345795 
L 292.104841 48.959156 
L 293.781636 48.959156 
L 294.340568 47.830276 
L 296.576294 47.830276 
L 297.135225 50.088036 
L 299.370952 50.088036 
L 299.929883 53.474675 
L 302.724541 53.474675 
L 303.283472 51.216916 
L 304.960267 51.216916 
L 305.519199 48.959156 
L 307.754925 48.959156 
L 308.313856 51.216915 
L 311.108514 51.216915 
L 311.667446 50.088036 
L 313.903172 50.088036 
L 314.462104 53.474675 
L 316.138898 53.474675 
L 316.69783 56.861315 
L 319.492487 56.861315 
L 320.051419 62.505715 
L 321.728214 62.505715 
L 322.287145 76.052274 
L 324.522871 76.052274 
L 325.081803 83.954433 
L 327.317529 83.954433 
L 327.876461 82.825553 
L 330.671119 82.825553 
L 331.23005 94.114352 
L 332.906845 94.114352 
L 333.465776 96.372112 
L 335.701503 96.372112 
L 336.260434 105.403152 
L 338.49616 105.403152 
L 339.055092 104.274272 
L 341.84975 104.274272 
L 342.408681 100.887632 
L 344.085476 100.887632 
L 344.644407 102.016512 
L 349.674791 102.016512 
L 350.233723 105.403152 
L 353.028381 105.403152 
L 353.587312 107.660911 
L 355.264107 107.660911 
L 355.823038 113.305311 
L 358.058765 113.305311 
L 358.617696 112.176431 
L 360.853422 112.176431 
L 361.412354 109.918672 
L 363.64808 109.918672 
L 364.207012 114.434191 
L 367.001669 114.434191 
L 367.560601 120.078591 
L 369.237396 120.078591 
L 369.796327 131.36739 
L 372.590985 131.36739 
L 373.149917 142.656189 
L 374.826711 142.656189 
L 375.385643 181.038107 
L 377.621369 181.038107 
L 378.180301 182.166987 
L 380.416027 182.166987 
L 380.974958 201.357946 
L 383.210684 201.357946 
L 383.769616 216.033385 
L 386.005342 216.033385 
L 386.564274 217.162265 
L 388.8 217.162265 
L 388.8 217.162265 
" style="fill:none;stroke:#1f77b4;stroke-linecap:square;stroke-width:1.5;"/>
   </g>
   <g id="line2d_13">
    <path clip-path="url(#p581f798560)" d="M 54 229.579944 
L 56.794658 229.579944 
L 57.353589 224.791723 
L 59.589316 224.791723 
L 60.148247 222.945815 
L 62.383973 222.945815 
L 62.942905 219.992412 
L 65.178631 219.992412 
L 65.737563 218.863532 
L 67.973289 218.863532 
L 68.53222 218.291145 
L 70.209015 218.291145 
L 70.767947 213.775625 
L 73.562604 213.775625 
L 74.121536 209.260106 
L 75.798331 209.260106 
L 76.357262 202.486826 
L 79.15192 202.486826 
L 79.710851 195.713547 
L 81.387646 195.713547 
L 81.946578 186.682507 
L 84.182304 186.682507 
L 84.741235 177.651468 
L 86.976962 177.651468 
L 87.535893 165.233789 
L 89.771619 165.233789 
L 90.330551 153.944989 
L 92.566277 153.944989 
L 93.125209 146.04283 
L 103.744908 146.04283 
L 104.30384 144.91395 
L 106.539566 144.91395 
L 107.098497 142.65619 
L 109.334224 142.65619 
L 109.893155 133.625151 
L 112.128881 133.625151 
L 112.687813 129.109631 
L 117.718197 129.109631 
L 118.277129 127.980751 
L 134.486144 127.980751 
L 135.045075 123.465231 
L 137.839733 123.465231 
L 138.398664 120.078591 
L 140.634391 120.078591 
L 141.193322 121.207471 
L 142.870117 121.207471 
L 143.429048 115.563072 
L 145.664775 115.563072 
L 146.223706 114.434192 
L 148.459432 114.434192 
L 149.018364 109.918672 
L 151.25409 109.918672 
L 151.813022 115.563072 
L 165.227379 115.563072 
L 165.786311 113.305312 
L 168.022037 113.305312 
L 168.580968 109.918672 
L 171.375626 109.918672 
L 171.934558 106.532032 
L 174.170284 106.532032 
L 174.729215 113.305312 
L 176.40601 113.305312 
L 176.964942 107.660912 
L 179.200668 107.660912 
L 179.759599 104.274273 
L 181.995326 104.274273 
L 182.554257 99.758753 
L 185.348915 99.758753 
L 185.907846 111.047552 
L 187.584641 111.047552 
L 188.143573 109.918672 
L 195.968614 109.918672 
L 196.527546 112.176432 
L 202.116861 112.176432 
L 202.675793 107.660912 
L 204.352588 107.660912 
L 204.911519 106.532032 
L 207.147245 106.532032 
L 207.706177 108.789792 
L 210.500835 108.789792 
L 211.059766 105.403152 
L 212.736561 105.403152 
L 213.295492 102.016513 
L 215.531219 102.016513 
L 216.09015 104.274273 
L 218.884808 104.274273 
L 219.44374 113.305312 
L 221.120534 113.305312 
L 221.679466 115.563072 
L 226.70985 115.563072 
L 227.268781 113.305312 
L 230.063439 113.305312 
L 230.622371 117.820832 
L 232.299165 117.820832 
L 232.858097 115.563072 
L 235.093823 115.563072 
L 235.652755 112.176432 
L 237.888481 112.176432 
L 238.447412 108.789792 
L 240.683139 108.789792 
L 241.24207 118.949711 
L 246.272454 118.949711 
L 246.831386 115.563072 
L 249.067112 115.563072 
L 249.626043 111.047552 
L 252.420701 111.047552 
L 252.979633 122.336351 
L 257.451085 122.336351 
L 258.010017 118.949711 
L 260.245743 118.949711 
L 260.804674 116.691952 
L 263.599332 116.691952 
L 264.158264 123.465231 
L 265.835058 123.465231 
L 266.39399 126.851871 
L 268.629716 126.851871 
L 269.188648 130.238511 
L 271.424374 130.238511 
L 271.983306 126.851871 
L 274.777963 126.851871 
L 275.336895 132.49627 
L 277.013689 132.49627 
L 277.572621 126.851871 
L 279.808347 126.851871 
L 280.367279 125.722991 
L 282.603005 125.722991 
L 283.161937 122.336351 
L 285.397663 122.336351 
L 285.956594 134.75403 
L 288.751252 134.75403 
L 289.310184 133.62515 
L 290.986978 133.62515 
L 291.54591 137.01179 
L 293.781636 137.01179 
L 294.340568 135.88291 
L 297.135225 135.88291 
L 297.694157 138.14067 
L 299.370952 138.14067 
L 299.929883 143.785069 
L 302.165609 143.785069 
L 302.724541 142.65619 
L 304.960267 142.65619 
L 305.519199 144.913949 
L 307.754925 144.913949 
L 308.313856 150.558349 
L 310.549583 150.558349 
L 311.108514 149.429469 
L 316.138898 149.429469 
L 316.69783 151.687229 
L 319.492487 151.687229 
L 320.051419 153.944989 
L 321.728214 153.944989 
L 322.287145 155.073869 
L 327.876461 155.073869 
L 328.435392 152.816109 
L 330.671119 152.816109 
L 331.23005 158.460508 
L 332.906845 158.460508 
L 333.465776 155.073869 
L 335.701503 155.073869 
L 336.260434 153.944989 
L 341.84975 153.944989 
L 342.408681 159.589388 
L 347.439065 159.589388 
L 347.997997 157.331628 
L 349.674791 157.331628 
L 350.233723 153.944989 
L 352.469449 153.944989 
L 353.028381 170.878188 
L 355.264107 170.878188 
L 355.823038 176.522587 
L 358.058765 176.522587 
L 358.617696 174.264827 
L 360.853422 174.264827 
L 361.412354 172.007068 
L 363.64808 172.007068 
L 364.207012 182.166987 
L 366.442738 182.166987 
L 367.001669 177.651467 
L 369.237396 177.651467 
L 369.796327 173.135948 
L 372.032053 173.135948 
L 372.590985 168.620428 
L 375.385643 168.620428 
L 375.944574 199.100186 
L 377.621369 199.100186 
L 378.180301 202.486826 
L 380.416027 202.486826 
L 380.974958 209.260105 
L 383.210684 209.260105 
L 383.769616 221.677784 
L 386.005342 221.677784 
L 386.005342 221.677784 
" style="fill:none;stroke:#ff7f0e;stroke-linecap:square;stroke-width:1.5;"/>
   </g>
   <g id="patch_3">
    <path d="M 54 252 
L 54 34.56 
" style="fill:none;stroke:#000000;stroke-linecap:square;stroke-linejoin:miter;stroke-width:0.8;"/>
   </g>
   <g id="patch_4">
    <path d="M 388.8 252 
L 388.8 34.56 
" style="fill:none;stroke:#000000;stroke-linecap:square;stroke-linejoin:miter;stroke-width:0.8;"/>
   </g>
   <g id="patch_5">
    <path d="M 54 252 
L 388.8 252 
" style="fill:none;stroke:#000000;stroke-linecap:square;stroke-linejoin:miter;stroke-width:0.8;"/>
   </g>
   <g id="patch_6">
    <path d="M 54 34.56 
L 388.8 34.56 
" style="fill:none;stroke:#000000;stroke-linecap:square;stroke-linejoin:miter;stroke-width:0.8;"/>
   </g>
   <g id="legend_1">
    <g id="patch_7">
     <path d="M 61 71.91625 
L 142.973437 71.91625 
Q 144.973437 71.91625 144.973437 69.91625 
L 144.973437 41.56 
Q 144.973437 39.56 142.973437 39.56 
L 61 39.56 
Q 59 39.56 59 41.56 
L 59 69.91625 
Q 59 71.91625 61 71.91625 
z
" style="fill:#ffffff;opacity:0.8;stroke:#cccccc;stroke-linejoin:miter;"/>
    </g>
    <g id="line2d_14">
     <path d="M 63 47.658437 
L 83 47.658437 
" style="fill:none;stroke:#1f77b4;stroke-linecap:square;stroke-width:1.5;"/>
    </g>
    <g id="line2d_15"/>
    <g id="text_14">
     <!-- No AMM -->
     <g transform="translate(91 51.158437)scale(0.1 -0.1)">
      <defs>
       <path d="M 628 4666 
L 1478 4666 
L 3547 763 
L 3547 4666 
L 4159 4666 
L 4159 0 
L 3309 0 
L 1241 3903 
L 1241 0 
L 628 0 
L 628 4666 
z
" id="DejaVuSans-4e" transform="scale(0.015625)"/>
       <path d="M 2188 4044 
L 1331 1722 
L 3047 1722 
L 2188 4044 
z
M 1831 4666 
L 2547 4666 
L 4325 0 
L 3669 0 
L 3244 1197 
L 1141 1197 
L 716 0 
L 50 0 
L 1831 4666 
z
" id="DejaVuSans-41" transform="scale(0.015625)"/>
       <path d="M 628 4666 
L 1569 4666 
L 2759 1491 
L 3956 4666 
L 4897 4666 
L 4897 0 
L 4281 0 
L 4281 4097 
L 3078 897 
L 2444 897 
L 1241 4097 
L 1241 0 
L 628 0 
L 628 4666 
z
" id="DejaVuSans-4d" transform="scale(0.015625)"/>
      </defs>
      <use xlink:href="#DejaVuSans-4e"/>
      <use x="74.804688" xlink:href="#DejaVuSans-6f"/>
      <use x="135.986328" xlink:href="#DejaVuSans-20"/>
      <use x="167.773438" xlink:href="#DejaVuSans-41"/>
      <use x="236.181641" xlink:href="#DejaVuSans-4d"/>
      <use x="322.460938" xlink:href="#DejaVuSans-4d"/>
     </g>
    </g>
    <g id="line2d_16">
     <path d="M 63 62.336562 
L 83 62.336562 
" style="fill:none;stroke:#ff7f0e;stroke-linecap:square;stroke-width:1.5;"/>
    </g>
    <g id="line2d_17"/>
    <g id="text_15">
     <!-- With AMM -->
     <g transform="translate(91 65.836562)scale(0.1 -0.1)">
      <defs>
       <path d="M 213 4666 
L 850 4666 
L 1831 722 
L 2809 4666 
L 3519 4666 
L 4500 722 
L 5478 4666 
L 6119 4666 
L 4947 0 
L 4153 0 
L 3169 4050 
L 2175 0 
L 1381 0 
L 213 4666 
z
" id="DejaVuSans-57" transform="scale(0.015625)"/>
       <path d="M 3513 2113 
L 3513 0 
L 2938 0 
L 2938 2094 
Q 2938 2591 2744 2837 
Q 2550 3084 2163 3084 
Q 1697 3084 1428 2787 
Q 1159 2491 1159 1978 
L 1159 0 
L 581 0 
L 581 4863 
L 1159 4863 
L 1159 2956 
Q 1366 3272 1645 3428 
Q 1925 3584 2291 3584 
Q 2894 3584 3203 3211 
Q 3513 2838 3513 2113 
z
" id="DejaVuSans-68" transform="scale(0.015625)"/>
      </defs>
      <use xlink:href="#DejaVuSans-57"/>
      <use x="96.626953" xlink:href="#DejaVuSans-69"/>
      <use x="124.410156" xlink:href="#DejaVuSans-74"/>
      <use x="163.619141" xlink:href="#DejaVuSans-68"/>
      <use x="226.998047" xlink:href="#DejaVuSans-20"/>
      <use x="258.785156" xlink:href="#DejaVuSans-41"/>
      <use x="327.193359" xlink:href="#DejaVuSans-4d"/>
      <use x="413.472656" xlink:href="#DejaVuSans-4d"/>
     </g>
    </g>
   </g>
  </g>
 </g>
 <defs>
  <clipPath id="p581f798560">
   <rect height="217.44" width="334.8" x="54" y="34.56"/>
  </clipPath>
 </defs>
</svg>
