<?xml version="1.0" encoding="UTF-8" standalone="no"?>
<!DOCTYPE svg PUBLIC "-//W3C//DTD SVG 1.1//EN"
 "http://www.w3.org/Graphics/SVG/1.1/DTD/svg11.dtd">
<!-- Generated by graphviz version 3.0.0 (20220315.2325)
 -->
<!-- Pages: 1 -->
<svg width="807pt" height="125pt"
 viewBox="0.00 0.00 806.75 125.00" xmlns="http://www.w3.org/2000/svg" xmlns:xlink="http://www.w3.org/1999/xlink">
<g id="graph0" class="graph" transform="scale(1 1) rotate(0) translate(4 121)">
<polygon fill="#ffffff" fill-opacity="0.941176" stroke="transparent" points="-4,4 -4,-121 802.75,-121 802.75,4 -4,4"/>
<!-- released1 -->
<g id="node1" class="node">
<title>released1</title>
<ellipse fill="none" stroke="black" cx="50.05" cy="-45" rx="50.09" ry="18"/>
<text text-anchor="middle" x="50.05" y="-41.3" font-family="Times,serif" font-size="14.00">released</text>
</g>
<!-- waiting -->
<g id="node3" class="node">
<title>waiting</title>
<ellipse fill="none" stroke="black" cx="181.59" cy="-45" rx="45.49" ry="18"/>
<text text-anchor="middle" x="181.59" y="-41.3" font-family="Times,serif" font-size="14.00">waiting</text>
</g>
<!-- released1&#45;&gt;waiting -->
<g id="edge1" class="edge">
<title>released1&#45;&gt;waiting</title>
<path fill="none" stroke="black" d="M100.39,-45C108.73,-45 117.42,-45 125.89,-45"/>
<polygon fill="black" stroke="black" points="126.05,-48.5 136.05,-45 126.05,-41.5 126.05,-48.5"/>
</g>
<!-- released2 -->
<g id="node2" class="node">
<title>released2</title>
<ellipse fill="none" stroke="black" cx="604.81" cy="-72" rx="50.09" ry="18"/>
<text text-anchor="middle" x="604.81" y="-68.3" font-family="Times,serif" font-size="14.00">released</text>
</g>
<!-- forgotten -->
<g id="node8" class="node">
<title>forgotten</title>
<ellipse fill="none" stroke="black" cx="744.8" cy="-72" rx="53.89" ry="18"/>
<text text-anchor="middle" x="744.8" y="-68.3" font-family="Times,serif" font-size="14.00">forgotten</text>
</g>
<!-- released2&#45;&gt;forgotten -->
<g id="edge8" class="edge">
<title>released2&#45;&gt;forgotten</title>
<path fill="none" stroke="black" d="M655.24,-72C663.37,-72 671.91,-72 680.33,-72"/>
<polygon fill="black" stroke="black" points="680.51,-75.5 690.51,-72 680.51,-68.5 680.51,-75.5"/>
</g>
<!-- processing -->
<g id="node4" class="node">
<title>processing</title>
<ellipse fill="none" stroke="black" cx="324.18" cy="-72" rx="61.19" ry="18"/>
<text text-anchor="middle" x="324.18" y="-68.3" font-family="Times,serif" font-size="14.00">processing</text>
</g>
<!-- waiting&#45;&gt;processing -->
<g id="edge2" class="edge">
<title>waiting&#45;&gt;processing</title>
<path fill="none" stroke="black" d="M222.87,-52.74C235.22,-55.11 249.1,-57.77 262.49,-60.35"/>
<polygon fill="black" stroke="black" points="262.13,-63.84 272.61,-62.29 263.45,-56.97 262.13,-63.84"/>
</g>
<!-- no&#45;worker -->
<g id="node5" class="node">
<title>no&#45;worker</title>
<ellipse fill="none" stroke="black" cx="324.18" cy="-18" rx="57.69" ry="18"/>
<text text-anchor="middle" x="324.18" y="-14.3" font-family="Times,serif" font-size="14.00">no&#45;worker</text>
</g>
<!-- waiting&#45;&gt;no&#45;worker -->
<g id="edge3" class="edge">
<title>waiting&#45;&gt;no&#45;worker</title>
<path fill="none" stroke="black" d="M233,-35.32C243.28,-33.34 254.17,-31.25 264.7,-29.23"/>
<polygon fill="black" stroke="black" points="232.04,-31.94 222.87,-37.26 233.36,-38.81 232.04,-31.94"/>
<polygon fill="black" stroke="black" points="265.5,-32.64 274.66,-27.32 264.18,-25.77 265.5,-32.64"/>
</g>
<!-- memory -->
<g id="node6" class="node">
<title>memory</title>
<ellipse fill="none" stroke="black" cx="470.02" cy="-99" rx="48.99" ry="18"/>
<text text-anchor="middle" x="470.02" y="-95.3" font-family="Times,serif" font-size="14.00">memory</text>
</g>
<!-- processing&#45;&gt;memory -->
<g id="edge4" class="edge">
<title>processing&#45;&gt;memory</title>
<path fill="none" stroke="black" d="M376.3,-81.6C389.17,-84.01 403.01,-86.61 415.97,-89.04"/>
<polygon fill="black" stroke="black" points="415.67,-92.55 426.14,-90.95 416.96,-85.67 415.67,-92.55"/>
</g>
<!-- error -->
<g id="node7" class="node">
<title>error</title>
<ellipse fill="none" stroke="black" cx="470.02" cy="-45" rx="34.39" ry="18"/>
<text text-anchor="middle" x="470.02" y="-41.3" font-family="Times,serif" font-size="14.00">error</text>
</g>
<!-- processing&#45;&gt;error -->
<g id="edge5" class="edge">
<title>processing&#45;&gt;error</title>
<path fill="none" stroke="black" d="M376.3,-62.4C392.99,-59.27 411.32,-55.83 427.24,-52.84"/>
<polygon fill="black" stroke="black" points="428.13,-56.24 437.31,-50.95 426.84,-49.36 428.13,-56.24"/>
</g>
<!-- memory&#45;&gt;released2 -->
<g id="edge7" class="edge">
<title>memory&#45;&gt;released2</title>
<path fill="none" stroke="black" d="M513.03,-90.46C525.03,-88.02 538.25,-85.33 550.8,-82.78"/>
<polygon fill="black" stroke="black" points="551.59,-86.19 560.7,-80.77 550.2,-79.33 551.59,-86.19"/>
</g>
<!-- error&#45;&gt;released2 -->
<g id="edge6" class="edge">
<title>error&#45;&gt;released2</title>
<path fill="none" stroke="black" d="M502.49,-51.4C516.91,-54.33 534.39,-57.89 550.76,-61.21"/>
<polygon fill="black" stroke="black" points="550.26,-64.68 560.76,-63.25 551.66,-57.82 550.26,-64.68"/>
</g>
</g>
</svg>
