<?xml version="1.0" encoding="UTF-8" standalone="no"?>
<!DOCTYPE svg PUBLIC "-//W3C//DTD SVG 1.1//EN"
 "http://www.w3.org/Graphics/SVG/1.1/DTD/svg11.dtd">
<!-- Generated by graphviz version 5.0.0 (20220707.1540)
 -->
<!-- Pages: 1 -->
<svg width="905pt" height="197pt"
 viewBox="0.00 0.00 905.45 197.00" xmlns="http://www.w3.org/2000/svg" xmlns:xlink="http://www.w3.org/1999/xlink">
<g id="graph0" class="graph" transform="scale(1 1) rotate(0) translate(4 193)">
<polygon fill="#ffffff" fill-opacity="0.941176" stroke="transparent" points="-4,4 -4,-193 901.45,-193 901.45,4 -4,4"/>
<!-- released1 -->
<g id="node1" class="node">
<title>released1</title>
<ellipse fill="none" stroke="black" cx="129.65" cy="-117" rx="39.79" ry="18"/>
<text text-anchor="middle" x="129.65" y="-113.3" font-family="Times,serif" font-size="14.00">released</text>
</g>
<!-- waiting -->
<g id="node4" class="node">
<title>waiting</title>
<ellipse fill="none" stroke="black" cx="242.34" cy="-117" rx="37.09" ry="18"/>
<text text-anchor="middle" x="242.34" y="-113.3" font-family="Times,serif" font-size="14.00">waiting</text>
</g>
<!-- released1&#45;&gt;waiting -->
<g id="edge2" class="edge">
<title>released1&#45;&gt;waiting</title>
<path fill="none" stroke="black" d="M169.36,-117C177.61,-117 186.39,-117 194.89,-117"/>
<polygon fill="black" stroke="black" points="195.06,-120.5 205.06,-117 195.06,-113.5 195.06,-120.5"/>
</g>
<!-- released2 -->
<g id="node2" class="node">
<title>released2</title>
<ellipse fill="none" stroke="black" cx="736.01" cy="-87" rx="39.79" ry="18"/>
<text text-anchor="middle" x="736.01" y="-83.3" font-family="Times,serif" font-size="14.00">released</text>
</g>
<!-- forgotten -->
<g id="node10" class="node">
<title>forgotten</title>
<ellipse fill="none" stroke="black" cx="854.55" cy="-45" rx="42.79" ry="18"/>
<text text-anchor="middle" x="854.55" y="-41.3" font-family="Times,serif" font-size="14.00">forgotten</text>
</g>
<!-- released2&#45;&gt;forgotten -->
<g id="edge15" class="edge">
<title>released2&#45;&gt;forgotten</title>
<path fill="none" stroke="black" d="M767.63,-75.96C781.11,-71.11 797.16,-65.32 811.72,-60.08"/>
<polygon fill="black" stroke="black" points="813.29,-63.23 821.51,-56.55 810.91,-56.65 813.29,-63.23"/>
</g>
<!-- new -->
<g id="node3" class="node">
<title>new</title>
<ellipse fill="none" stroke="black" cx="27" cy="-117" rx="27" ry="18"/>
<text text-anchor="middle" x="27" y="-113.3" font-family="Times,serif" font-size="14.00">new</text>
</g>
<!-- new&#45;&gt;released1 -->
<g id="edge1" class="edge">
<title>new&#45;&gt;released1</title>
<path fill="none" stroke="black" d="M54.18,-117C61.97,-117 70.76,-117 79.51,-117"/>
<polygon fill="black" stroke="black" points="79.7,-120.5 89.7,-117 79.7,-113.5 79.7,-120.5"/>
</g>
<!-- processing -->
<g id="node5" class="node">
<title>processing</title>
<ellipse fill="none" stroke="black" cx="494.37" cy="-79" rx="48.19" ry="18"/>
<text text-anchor="middle" x="494.37" y="-75.3" font-family="Times,serif" font-size="14.00">processing</text>
</g>
<!-- waiting&#45;&gt;processing -->
<g id="edge3" class="edge">
<title>waiting&#45;&gt;processing</title>
<path fill="none" stroke="black" d="M270.14,-104.79C283.46,-99.28 299.97,-93.29 315.39,-90 355.07,-81.54 400.77,-78.86 435.93,-78.25"/>
<polygon fill="black" stroke="black" points="436.06,-81.75 446.02,-78.13 435.97,-74.75 436.06,-81.75"/>
</g>
<!-- no&#45;worker -->
<g id="node6" class="node">
<title>no&#45;worker</title>
<ellipse fill="none" stroke="black" cx="362.83" cy="-117" rx="47.39" ry="18"/>
<text text-anchor="middle" x="362.83" y="-113.3" font-family="Times,serif" font-size="14.00">no&#45;worker</text>
</g>
<!-- waiting&#45;&gt;no&#45;worker -->
<g id="edge4" class="edge">
<title>waiting&#45;&gt;no&#45;worker</title>
<path fill="none" stroke="black" d="M279.54,-117C287.66,-117 296.46,-117 305.19,-117"/>
<polygon fill="black" stroke="black" points="305.36,-120.5 315.36,-117 305.36,-113.5 305.36,-120.5"/>
</g>
<!-- queued -->
<g id="node7" class="node">
<title>queued</title>
<ellipse fill="none" stroke="black" cx="362.83" cy="-171" rx="36.29" ry="18"/>
<text text-anchor="middle" x="362.83" y="-167.3" font-family="Times,serif" font-size="14.00">queued</text>
</g>
<!-- waiting&#45;&gt;queued -->
<g id="edge7" class="edge">
<title>waiting&#45;&gt;queued</title>
<path fill="none" stroke="black" d="M269.93,-129.12C286.4,-136.62 307.76,-146.36 325.74,-154.55"/>
<polygon fill="black" stroke="black" points="324.78,-157.96 335.33,-158.92 327.68,-151.59 324.78,-157.96"/>
</g>
<!-- processing&#45;&gt;released2 -->
<g id="edge10" class="edge">
<title>processing&#45;&gt;released2</title>
<path fill="none" stroke="black" d="M533.54,-68.38C547.55,-64.99 563.62,-61.68 578.47,-60 614.64,-55.92 624.51,-53.72 660.36,-60 672.88,-62.19 686.06,-66.31 697.8,-70.68"/>
<polygon fill="black" stroke="black" points="696.7,-74 707.28,-74.37 699.24,-67.48 696.7,-74"/>
</g>
<!-- memory -->
<g id="node8" class="node">
<title>memory</title>
<ellipse fill="none" stroke="black" cx="619.42" cy="-87" rx="40.89" ry="18"/>
<text text-anchor="middle" x="619.42" y="-83.3" font-family="Times,serif" font-size="14.00">memory</text>
</g>
<!-- processing&#45;&gt;memory -->
<g id="edge11" class="edge">
<title>processing&#45;&gt;memory</title>
<path fill="none" stroke="black" d="M541.89,-82.02C550.6,-82.59 559.73,-83.18 568.53,-83.76"/>
<polygon fill="black" stroke="black" points="568.47,-87.26 578.67,-84.42 568.92,-80.27 568.47,-87.26"/>
</g>
<!-- error -->
<g id="node9" class="node">
<title>error</title>
<ellipse fill="none" stroke="black" cx="736.01" cy="-18" rx="27.9" ry="18"/>
<text text-anchor="middle" x="736.01" y="-14.3" font-family="Times,serif" font-size="14.00">error</text>
</g>
<!-- processing&#45;&gt;error -->
<g id="edge12" class="edge">
<title>processing&#45;&gt;error</title>
<path fill="none" stroke="black" d="M530.77,-67.21C545.45,-62.51 562.7,-57.22 578.47,-53 619.43,-42.03 667.06,-31.73 698.92,-25.18"/>
<polygon fill="black" stroke="black" points="699.99,-28.53 709.09,-23.11 698.59,-21.67 699.99,-28.53"/>
</g>
<!-- no&#45;worker&#45;&gt;released2 -->
<g id="edge6" class="edge">
<title>no&#45;worker&#45;&gt;released2</title>
<path fill="none" stroke="black" d="M408.98,-121.21C467.5,-125.61 572.46,-129.87 660.36,-114 672.86,-111.74 686.04,-107.61 697.79,-103.25"/>
<polygon fill="black" stroke="black" points="699.22,-106.44 707.27,-99.56 696.68,-99.92 699.22,-106.44"/>
</g>
<!-- no&#45;worker&#45;&gt;processing -->
<g id="edge5" class="edge">
<title>no&#45;worker&#45;&gt;processing</title>
<path fill="none" stroke="black" d="M400.95,-106.11C414.93,-102.01 431.01,-97.29 445.8,-92.95"/>
<polygon fill="black" stroke="black" points="447.19,-96.2 455.8,-90.02 445.22,-89.48 447.19,-96.2"/>
</g>
<!-- queued&#45;&gt;released2 -->
<g id="edge9" class="edge">
<title>queued&#45;&gt;released2</title>
<path fill="none" stroke="black" d="M399.61,-170.97C456.45,-169.9 570.18,-163.56 660.36,-132 676.65,-126.3 693.23,-116.75 706.62,-107.91"/>
<polygon fill="black" stroke="black" points="708.63,-110.78 714.93,-102.25 704.69,-104.99 708.63,-110.78"/>
</g>
<!-- queued&#45;&gt;processing -->
<g id="edge8" class="edge">
<title>queued&#45;&gt;processing</title>
<path fill="none" stroke="black" d="M387.85,-157.88C395.18,-153.65 403.17,-148.81 410.28,-144 429.52,-130.97 450.1,-114.89 465.97,-101.98"/>
<polygon fill="black" stroke="black" points="468.29,-104.6 473.8,-95.55 463.85,-99.19 468.29,-104.6"/>
</g>
<!-- memory&#45;&gt;released2 -->
<g id="edge14" class="edge">
<title>memory&#45;&gt;released2</title>
<path fill="none" stroke="black" d="M660.49,-87C668.75,-87 677.54,-87 686.07,-87"/>
<polygon fill="black" stroke="black" points="686.3,-90.5 696.3,-87 686.3,-83.5 686.3,-90.5"/>
</g>
<!-- error&#45;&gt;forgotten -->
<g id="edge13" class="edge">
<title>error&#45;&gt;forgotten</title>
<path fill="none" stroke="black" d="M762.58,-23.93C775.43,-26.9 791.42,-30.6 806.38,-34.07"/>
<polygon fill="black" stroke="black" points="806,-37.58 816.53,-36.42 807.58,-30.76 806,-37.58"/>
</g>
</g>
</svg>
