<?xml version="1.0" encoding="UTF-8" standalone="no"?>
<!DOCTYPE svg PUBLIC "-//W3C//DTD SVG 1.1//EN"
 "http://www.w3.org/Graphics/SVG/1.1/DTD/svg11.dtd">
<!-- Generated by graphviz version 5.0.0 (20220707.1540)
 -->
<!-- Pages: 1 -->
<svg width="815pt" height="125pt"
 viewBox="0.00 0.00 815.45 125.00" xmlns="http://www.w3.org/2000/svg" xmlns:xlink="http://www.w3.org/1999/xlink">
<g id="graph0" class="graph" transform="scale(1 1) rotate(0) translate(4 121)">
<polygon fill="#ffffff" fill-opacity="0.941176" stroke="transparent" points="-4,4 -4,-121 811.45,-121 811.45,4 -4,4"/>
<!-- released1 -->
<g id="node1" class="node">
<title>released1</title>
<ellipse fill="none" stroke="black" cx="39.65" cy="-72" rx="39.79" ry="18"/>
<text text-anchor="middle" x="39.65" y="-68.3" font-family="Times,serif" font-size="14.00">released</text>
</g>
<!-- waiting -->
<g id="node3" class="node">
<title>waiting</title>
<ellipse fill="none" stroke="black" cx="152.34" cy="-72" rx="37.09" ry="18"/>
<text text-anchor="middle" x="152.34" y="-68.3" font-family="Times,serif" font-size="14.00">waiting</text>
</g>
<!-- released1&#45;&gt;waiting -->
<g id="edge1" class="edge">
<title>released1&#45;&gt;waiting</title>
<path fill="none" stroke="black" d="M79.36,-72C87.61,-72 96.39,-72 104.89,-72"/>
<polygon fill="black" stroke="black" points="105.06,-75.5 115.06,-72 105.06,-68.5 105.06,-75.5"/>
</g>
<!-- released2 -->
<g id="node2" class="node">
<title>released2</title>
<ellipse fill="none" stroke="black" cx="646.01" cy="-72" rx="39.79" ry="18"/>
<text text-anchor="middle" x="646.01" y="-68.3" font-family="Times,serif" font-size="14.00">released</text>
</g>
<!-- forgotten -->
<g id="node9" class="node">
<title>forgotten</title>
<ellipse fill="none" stroke="black" cx="764.55" cy="-72" rx="42.79" ry="18"/>
<text text-anchor="middle" x="764.55" y="-68.3" font-family="Times,serif" font-size="14.00">forgotten</text>
</g>
<!-- released2&#45;&gt;forgotten -->
<g id="edge11" class="edge">
<title>released2&#45;&gt;forgotten</title>
<path fill="none" stroke="black" d="M685.82,-72C693.91,-72 702.58,-72 711.07,-72"/>
<polygon fill="black" stroke="black" points="711.31,-75.5 721.31,-72 711.31,-68.5 711.31,-75.5"/>
</g>
<!-- processing -->
<g id="node4" class="node">
<title>processing</title>
<ellipse fill="none" stroke="black" cx="404.37" cy="-72" rx="48.19" ry="18"/>
<text text-anchor="middle" x="404.37" y="-68.3" font-family="Times,serif" font-size="14.00">processing</text>
</g>
<!-- waiting&#45;&gt;processing -->
<g id="edge2" class="edge">
<title>waiting&#45;&gt;processing</title>
<path fill="none" stroke="black" d="M179.38,-84.34C192.8,-90.03 209.61,-96.14 225.39,-99 266.88,-106.52 278.62,-105.6 320.28,-99 334.01,-96.83 348.56,-92.75 361.58,-88.41"/>
<polygon fill="black" stroke="black" points="362.9,-91.65 371.2,-85.07 360.6,-85.04 362.9,-91.65"/>
</g>
<!-- no&#45;worker -->
<g id="node5" class="node">
<title>no&#45;worker</title>
<ellipse fill="none" stroke="black" cx="272.83" cy="-72" rx="47.39" ry="18"/>
<text text-anchor="middle" x="272.83" y="-68.3" font-family="Times,serif" font-size="14.00">no&#45;worker</text>
</g>
<!-- waiting&#45;&gt;no&#45;worker -->
<g id="edge3" class="edge">
<title>waiting&#45;&gt;no&#45;worker</title>
<path fill="none" stroke="black" d="M189.54,-72C197.66,-72 206.46,-72 215.19,-72"/>
<polygon fill="black" stroke="black" points="215.36,-75.5 225.36,-72 215.36,-68.5 215.36,-75.5"/>
</g>
<!-- queued -->
<g id="node6" class="node">
<title>queued</title>
<ellipse fill="none" stroke="black" cx="272.83" cy="-18" rx="36.29" ry="18"/>
<text text-anchor="middle" x="272.83" y="-14.3" font-family="Times,serif" font-size="14.00">queued</text>
</g>
<!-- waiting&#45;&gt;queued -->
<g id="edge4" class="edge">
<title>waiting&#45;&gt;queued</title>
<path fill="none" stroke="black" d="M179.93,-59.88C196.4,-52.38 217.76,-42.64 235.74,-34.45"/>
<polygon fill="black" stroke="black" points="237.68,-37.41 245.33,-30.08 234.78,-31.04 237.68,-37.41"/>
</g>
<!-- memory -->
<g id="node7" class="node">
<title>memory</title>
<ellipse fill="none" stroke="black" cx="529.42" cy="-99" rx="40.89" ry="18"/>
<text text-anchor="middle" x="529.42" y="-95.3" font-family="Times,serif" font-size="14.00">memory</text>
</g>
<!-- processing&#45;&gt;memory -->
<g id="edge7" class="edge">
<title>processing&#45;&gt;memory</title>
<path fill="none" stroke="black" d="M446.34,-80.99C458.03,-83.56 470.84,-86.37 482.79,-88.99"/>
<polygon fill="black" stroke="black" points="482.06,-92.41 492.58,-91.14 483.56,-85.57 482.06,-92.41"/>
</g>
<!-- error -->
<g id="node8" class="node">
<title>error</title>
<ellipse fill="none" stroke="black" cx="529.42" cy="-45" rx="27.9" ry="18"/>
<text text-anchor="middle" x="529.42" y="-41.3" font-family="Times,serif" font-size="14.00">error</text>
</g>
<!-- processing&#45;&gt;error -->
<g id="edge8" class="edge">
<title>processing&#45;&gt;error</title>
<path fill="none" stroke="black" d="M446.34,-63.01C461.31,-59.73 478.1,-56.04 492.59,-52.86"/>
<polygon fill="black" stroke="black" points="493.64,-56.21 502.66,-50.65 492.14,-49.38 493.64,-56.21"/>
</g>
<!-- no&#45;worker&#45;&gt;processing -->
<g id="edge5" class="edge">
<title>no&#45;worker&#45;&gt;processing</title>
<path fill="none" stroke="black" d="M320.6,-72C328.84,-72 337.51,-72 346,-72"/>
<polygon fill="black" stroke="black" points="346.24,-75.5 356.24,-72 346.24,-68.5 346.24,-75.5"/>
</g>
<!-- queued&#45;&gt;processing -->
<g id="edge6" class="edge">
<title>queued&#45;&gt;processing</title>
<path fill="none" stroke="black" d="M301.3,-29.45C318.92,-36.8 342.12,-46.47 361.95,-54.73"/>
<polygon fill="black" stroke="black" points="360.8,-58.04 371.37,-58.66 363.49,-51.58 360.8,-58.04"/>
</g>
<!-- memory&#45;&gt;released2 -->
<g id="edge10" class="edge">
<title>memory&#45;&gt;released2</title>
<path fill="none" stroke="black" d="M565.73,-90.68C576.72,-88.09 588.98,-85.2 600.5,-82.49"/>
<polygon fill="black" stroke="black" points="601.47,-85.85 610.4,-80.15 599.86,-79.04 601.47,-85.85"/>
</g>
<!-- error&#45;&gt;released2 -->
<g id="edge9" class="edge">
<title>error&#45;&gt;released2</title>
<path fill="none" stroke="black" d="M555.85,-50.99C569.05,-54.1 585.55,-57.99 600.76,-61.57"/>
<polygon fill="black" stroke="black" points="599.98,-64.99 610.52,-63.87 601.59,-58.17 599.98,-64.99"/>
</g>
</g>
</svg>
