<?xml version="1.0" encoding="UTF-8" standalone="no"?>
<!DOCTYPE svg PUBLIC "-//W3C//DTD SVG 1.1//EN"
 "http://www.w3.org/Graphics/SVG/1.1/DTD/svg11.dtd">
<!-- Generated by graphviz version 3.0.0 (20220315.2325)
 -->
<!-- Pages: 1 -->
<svg width="898pt" height="160pt"
 viewBox="0.00 0.00 897.74 160.00" xmlns="http://www.w3.org/2000/svg" xmlns:xlink="http://www.w3.org/1999/xlink">
<g id="graph0" class="graph" transform="scale(1 1) rotate(0) translate(4 156)">
<polygon fill="#ffffff" fill-opacity="0.941176" stroke="transparent" points="-4,4 -4,-156 893.74,-156 893.74,4 -4,4"/>
<!-- released -->
<g id="node1" class="node">
<title>released</title>
<ellipse fill="none" stroke="black" cx="50.05" cy="-68" rx="50.09" ry="18"/>
<text text-anchor="middle" x="50.05" y="-64.3" font-family="Times,serif" font-size="14.00">released</text>
</g>
<!-- waiting -->
<g id="node2" class="node">
<title>waiting</title>
<ellipse fill="none" stroke="black" cx="181.59" cy="-68" rx="45.49" ry="18"/>
<text text-anchor="middle" x="181.59" y="-64.3" font-family="Times,serif" font-size="14.00">waiting</text>
</g>
<!-- released&#45;&gt;waiting -->
<g id="edge1" class="edge">
<title>released&#45;&gt;waiting</title>
<path fill="none" stroke="black" d="M100.39,-68C108.73,-68 117.42,-68 125.89,-68"/>
<polygon fill="black" stroke="black" points="126.05,-71.5 136.05,-68 126.05,-64.5 126.05,-71.5"/>
</g>
<!-- ready -->
<g id="node3" class="node">
<title>ready</title>
<ellipse fill="none" stroke="black" cx="328.73" cy="-95" rx="37.09" ry="18"/>
<text text-anchor="middle" x="328.73" y="-91.3" font-family="Times,serif" font-size="14.00">ready</text>
</g>
<!-- waiting&#45;&gt;ready -->
<g id="edge2" class="edge">
<title>waiting&#45;&gt;ready</title>
<path fill="none" stroke="black" d="M223.02,-75.52C241.93,-79.04 264.49,-83.24 283.82,-86.83"/>
<polygon fill="black" stroke="black" points="283.42,-90.32 293.89,-88.71 284.7,-83.44 283.42,-90.32"/>
</g>
<!-- constrained -->
<g id="node4" class="node">
<title>constrained</title>
<ellipse fill="none" stroke="black" cx="328.73" cy="-41" rx="65.79" ry="18"/>
<text text-anchor="middle" x="328.73" y="-37.3" font-family="Times,serif" font-size="14.00">constrained</text>
</g>
<!-- waiting&#45;&gt;constrained -->
<g id="edge3" class="edge">
<title>waiting&#45;&gt;constrained</title>
<path fill="none" stroke="black" d="M223.02,-60.48C235.71,-58.12 250.04,-55.45 263.93,-52.87"/>
<polygon fill="black" stroke="black" points="264.76,-56.27 273.95,-51 263.48,-49.39 264.76,-56.27"/>
</g>
<!-- executing -->
<g id="node5" class="node">
<title>executing</title>
<ellipse fill="none" stroke="black" cx="486.27" cy="-68" rx="55.79" ry="18"/>
<text text-anchor="middle" x="486.27" y="-64.3" font-family="Times,serif" font-size="14.00">executing</text>
</g>
<!-- ready&#45;&gt;executing -->
<g id="edge4" class="edge">
<title>ready&#45;&gt;executing</title>
<path fill="none" stroke="black" d="M363.86,-89.07C382.31,-85.87 405.61,-81.83 426.85,-78.14"/>
<polygon fill="black" stroke="black" points="427.5,-81.58 436.76,-76.42 426.3,-74.68 427.5,-81.58"/>
</g>
<!-- constrained&#45;&gt;executing -->
<g id="edge5" class="edge">
<title>constrained&#45;&gt;executing</title>
<path fill="none" stroke="black" d="M384.56,-50.52C398.22,-52.89 412.91,-55.44 426.73,-57.84"/>
<polygon fill="black" stroke="black" points="426.17,-61.29 436.62,-59.56 427.36,-54.4 426.17,-61.29"/>
</g>
<!-- long&#45;running -->
<g id="node6" class="node">
<title>long&#45;running</title>
<ellipse fill="none" stroke="black" cx="648.36" cy="-91" rx="70.39" ry="18"/>
<text text-anchor="middle" x="648.36" y="-87.3" font-family="Times,serif" font-size="14.00">long&#45;running</text>
</g>
<!-- executing&#45;&gt;long&#45;running -->
<g id="edge6" class="edge">
<title>executing&#45;&gt;long&#45;running</title>
<path fill="none" stroke="black" d="M537.48,-75.21C549.9,-77 563.44,-78.94 576.64,-80.84"/>
<polygon fill="black" stroke="black" points="576.25,-84.32 586.64,-82.28 577.24,-77.39 576.25,-84.32"/>
</g>
<!-- memory -->
<g id="node7" class="node">
<title>memory</title>
<ellipse fill="none" stroke="black" cx="822.14" cy="-134" rx="48.99" ry="18"/>
<text text-anchor="middle" x="822.14" y="-130.3" font-family="Times,serif" font-size="14.00">memory</text>
</g>
<!-- executing&#45;&gt;memory -->
<g id="edge7" class="edge">
<title>executing&#45;&gt;memory</title>
<path fill="none" stroke="black" d="M510.31,-84.4C527.98,-96.02 553.44,-110.78 578.16,-118 639.72,-135.99 713.65,-138.28 763.67,-137.15"/>
<polygon fill="black" stroke="black" points="764.07,-140.65 773.97,-136.87 763.88,-133.65 764.07,-140.65"/>
</g>
<!-- error -->
<g id="node8" class="node">
<title>error</title>
<ellipse fill="none" stroke="black" cx="822.14" cy="-77" rx="34.39" ry="18"/>
<text text-anchor="middle" x="822.14" y="-73.3" font-family="Times,serif" font-size="14.00">error</text>
</g>
<!-- executing&#45;&gt;error -->
<g id="edge8" class="edge">
<title>executing&#45;&gt;error</title>
<path fill="none" stroke="black" d="M541.57,-65.22C553.61,-64.71 566.32,-64.26 578.16,-64 640.54,-62.63 656.28,-60.07 718.55,-64 738.41,-65.25 760.31,-67.86 778.76,-70.41"/>
<polygon fill="black" stroke="black" points="778.5,-73.91 788.9,-71.86 779.49,-66.98 778.5,-73.91"/>
</g>
<!-- rescheduled -->
<g id="node9" class="node">
<title>rescheduled</title>
<ellipse fill="none" stroke="black" cx="822.14" cy="-18" rx="67.69" ry="18"/>
<text text-anchor="middle" x="822.14" y="-14.3" font-family="Times,serif" font-size="14.00">rescheduled</text>
</g>
<!-- executing&#45;&gt;rescheduled -->
<g id="edge9" class="edge">
<title>executing&#45;&gt;rescheduled</title>
<path fill="none" stroke="black" d="M537.25,-60.51C594.58,-51.93 688.89,-37.81 752.94,-28.21"/>
<polygon fill="black" stroke="black" points="753.57,-31.66 762.94,-26.72 752.54,-24.74 753.57,-31.66"/>
</g>
<!-- long&#45;running&#45;&gt;memory -->
<g id="edge10" class="edge">
<title>long&#45;running&#45;&gt;memory</title>
<path fill="none" stroke="black" d="M699.51,-103.55C722.19,-109.23 748.93,-115.92 771.55,-121.59"/>
<polygon fill="black" stroke="black" points="770.75,-124.99 781.3,-124.03 772.45,-118.2 770.75,-124.99"/>
</g>
<!-- long&#45;running&#45;&gt;error -->
<g id="edge11" class="edge">
<title>long&#45;running&#45;&gt;error</title>
<path fill="none" stroke="black" d="M715.77,-85.59C736.64,-83.89 759.14,-82.05 777.96,-80.52"/>
<polygon fill="black" stroke="black" points="778.32,-84 788,-79.7 777.75,-77.02 778.32,-84"/>
</g>
<!-- long&#45;running&#45;&gt;rescheduled -->
<g id="edge12" class="edge">
<title>long&#45;running&#45;&gt;rescheduled</title>
<path fill="none" stroke="black" d="M685.37,-75.7C711.8,-64.47 747.87,-49.14 776.19,-37.1"/>
<polygon fill="black" stroke="black" points="777.64,-40.29 785.47,-33.16 774.9,-33.85 777.64,-40.29"/>
</g>
</g>
</svg>
