<?xml version="1.0" encoding="UTF-8" standalone="no"?>
<!DOCTYPE svg PUBLIC "-//W3C//DTD SVG 1.1//EN"
 "http://www.w3.org/Graphics/SVG/1.1/DTD/svg11.dtd">
<!-- Generated by graphviz version 3.0.0 (20220315.2325)
 -->
<!-- Pages: 1 -->
<svg width="715pt" height="206pt"
 viewBox="0.00 0.00 715.25 206.00" xmlns="http://www.w3.org/2000/svg" xmlns:xlink="http://www.w3.org/1999/xlink">
<g id="graph0" class="graph" transform="scale(1 1) rotate(0) translate(4 202)">
<polygon fill="#ffffff" fill-opacity="0.941176" stroke="transparent" points="-4,4 -4,-202 711.25,-202 711.25,4 -4,4"/>
<!-- executing1 -->
<g id="node1" class="node">
<title>executing1</title>
<ellipse fill="none" stroke="black" cx="55.9" cy="-126" rx="55.79" ry="18"/>
<text text-anchor="middle" x="55.9" y="-122.3" font-family="Times,serif" font-size="14.00">executing</text>
</g>
<!-- cancelled -->
<g id="node3" class="node">
<title>cancelled</title>
<ellipse fill="none" stroke="black" cx="254.38" cy="-126" rx="106.68" ry="18"/>
<text text-anchor="middle" x="254.38" y="-122.3" font-family="Times,serif" font-size="14.00">cancelled(executing)</text>
</g>
<!-- executing1&#45;&gt;cancelled -->
<g id="edge1" class="edge">
<title>executing1&#45;&gt;cancelled</title>
<path fill="none" stroke="black" d="M111.89,-126C120.05,-126 128.72,-126 137.58,-126"/>
<polygon fill="black" stroke="black" points="137.65,-129.5 147.65,-126 137.65,-122.5 137.65,-129.5"/>
</g>
<!-- executing2 -->
<g id="node2" class="node">
<title>executing2</title>
<ellipse fill="none" stroke="black" cx="651.35" cy="-180" rx="55.79" ry="18"/>
<text text-anchor="middle" x="651.35" y="-176.3" font-family="Times,serif" font-size="14.00">executing</text>
</g>
<!-- cancelled&#45;&gt;executing2 -->
<g id="edge3" class="edge">
<title>cancelled&#45;&gt;executing2</title>
<path fill="none" stroke="black" d="M322.17,-139.91C345.74,-144.5 372.47,-149.36 396.97,-153 461.25,-162.54 535.18,-170.02 586.52,-174.66"/>
<polygon fill="black" stroke="black" points="586.53,-178.18 596.8,-175.58 587.16,-171.21 586.53,-178.18"/>
</g>
<!-- resumed -->
<g id="node4" class="node">
<title>resumed</title>
<ellipse fill="none" stroke="black" cx="478.21" cy="-126" rx="81.49" ry="18"/>
<text text-anchor="middle" x="478.21" y="-122.3" font-family="Times,serif" font-size="14.00">resumed(fetch)</text>
</g>
<!-- cancelled&#45;&gt;resumed -->
<g id="edge5" class="edge">
<title>cancelled&#45;&gt;resumed</title>
<path fill="none" stroke="black" d="M371.28,-126C376.42,-126 381.55,-126 386.62,-126"/>
<polygon fill="black" stroke="black" points="371.1,-122.5 361.1,-126 371.1,-129.5 371.1,-122.5"/>
<polygon fill="black" stroke="black" points="386.93,-129.5 396.93,-126 386.93,-122.5 386.93,-129.5"/>
</g>
<!-- released -->
<g id="node5" class="node">
<title>released</title>
<ellipse fill="none" stroke="black" cx="478.21" cy="-45" rx="50.09" ry="18"/>
<text text-anchor="middle" x="478.21" y="-41.3" font-family="Times,serif" font-size="14.00">released</text>
</g>
<!-- cancelled&#45;&gt;released -->
<g id="edge2" class="edge">
<title>cancelled&#45;&gt;released</title>
<path fill="none" stroke="black" d="M300.01,-109.71C338.73,-95.57 394.48,-75.21 433.06,-61.12"/>
<polygon fill="black" stroke="black" points="434.29,-64.4 442.48,-57.68 431.89,-57.82 434.29,-64.4"/>
</g>
<!-- resumed&#45;&gt;executing2 -->
<g id="edge6" class="edge">
<title>resumed&#45;&gt;executing2</title>
<path fill="none" stroke="black" d="M525.98,-140.76C549.27,-148.11 577.43,-156.99 601.07,-164.45"/>
<polygon fill="black" stroke="black" points="600.3,-167.88 610.89,-167.55 602.4,-161.2 600.3,-167.88"/>
</g>
<!-- memory -->
<g id="node7" class="node">
<title>memory</title>
<ellipse fill="none" stroke="black" cx="651.35" cy="-126" rx="48.99" ry="18"/>
<text text-anchor="middle" x="651.35" y="-122.3" font-family="Times,serif" font-size="14.00">memory</text>
</g>
<!-- resumed&#45;&gt;memory -->
<g id="edge7" class="edge">
<title>resumed&#45;&gt;memory</title>
<path fill="none" stroke="black" d="M559.52,-126C570.46,-126 581.52,-126 591.97,-126"/>
<polygon fill="black" stroke="black" points="592.2,-129.5 602.2,-126 592.2,-122.5 592.2,-129.5"/>
</g>
<!-- fetch -->
<g id="node8" class="node">
<title>fetch</title>
<ellipse fill="none" stroke="black" cx="651.35" cy="-72" rx="34.39" ry="18"/>
<text text-anchor="middle" x="651.35" y="-68.3" font-family="Times,serif" font-size="14.00">fetch</text>
</g>
<!-- resumed&#45;&gt;fetch -->
<g id="edge8" class="edge">
<title>resumed&#45;&gt;fetch</title>
<path fill="none" stroke="black" d="M525.98,-111.24C552.89,-102.75 586.29,-92.21 611.71,-84.19"/>
<polygon fill="black" stroke="black" points="612.89,-87.49 621.37,-81.15 610.78,-80.82 612.89,-87.49"/>
</g>
<!-- forgotten -->
<g id="node6" class="node">
<title>forgotten</title>
<ellipse fill="none" stroke="black" cx="651.35" cy="-18" rx="53.89" ry="18"/>
<text text-anchor="middle" x="651.35" y="-14.3" font-family="Times,serif" font-size="14.00">forgotten</text>
</g>
<!-- released&#45;&gt;forgotten -->
<g id="edge4" class="edge">
<title>released&#45;&gt;forgotten</title>
<path fill="none" stroke="black" d="M524.63,-37.84C545.41,-34.56 570.28,-30.63 592.39,-27.14"/>
<polygon fill="black" stroke="black" points="593,-30.59 602.33,-25.58 591.91,-23.68 593,-30.59"/>
</g>
</g>
</svg>
