<?xml version="1.0" encoding="UTF-8" standalone="no"?>
<!DOCTYPE svg PUBLIC "-//W3C//DTD SVG 1.1//EN"
 "http://www.w3.org/Graphics/SVG/1.1/DTD/svg11.dtd">
<!-- Generated by graphviz version 3.0.0 (20220315.2325)
 -->
<!-- Pages: 1 -->
<svg width="650pt" height="206pt"
 viewBox="0.00 0.00 650.25 206.00" xmlns="http://www.w3.org/2000/svg" xmlns:xlink="http://www.w3.org/1999/xlink">
<g id="graph0" class="graph" transform="scale(1 1) rotate(0) translate(4 202)">
<polygon fill="#ffffff" fill-opacity="0.941176" stroke="transparent" points="-4,4 -4,-202 646.25,-202 646.25,4 -4,4"/>
<!-- flight1 -->
<g id="node1" class="node">
<title>flight1</title>
<ellipse fill="none" stroke="black" cx="35.1" cy="-126" rx="35.19" ry="18"/>
<text text-anchor="middle" x="35.1" y="-122.3" font-family="Times,serif" font-size="14.00">flight</text>
</g>
<!-- cancelled -->
<g id="node3" class="node">
<title>cancelled</title>
<ellipse fill="none" stroke="black" cx="191.34" cy="-126" rx="85.29" ry="18"/>
<text text-anchor="middle" x="191.34" y="-122.3" font-family="Times,serif" font-size="14.00">cancelled(flight)</text>
</g>
<!-- flight1&#45;&gt;cancelled -->
<g id="edge1" class="edge">
<title>flight1&#45;&gt;cancelled</title>
<path fill="none" stroke="black" d="M70.33,-126C78.13,-126 86.79,-126 95.79,-126"/>
<polygon fill="black" stroke="black" points="96.06,-129.5 106.06,-126 96.06,-122.5 96.06,-129.5"/>
</g>
<!-- flight2 -->
<g id="node2" class="node">
<title>flight2</title>
<ellipse fill="none" stroke="black" cx="588.31" cy="-180" rx="35.19" ry="18"/>
<text text-anchor="middle" x="588.31" y="-176.3" font-family="Times,serif" font-size="14.00">flight</text>
</g>
<!-- cancelled&#45;&gt;flight2 -->
<g id="edge2" class="edge">
<title>cancelled&#45;&gt;flight2</title>
<path fill="none" stroke="black" d="M246.79,-139.73C267.27,-144.5 290.84,-149.52 312.48,-153 393.41,-166.02 488.83,-173.69 543.28,-177.35"/>
<polygon fill="black" stroke="black" points="543.08,-180.85 553.29,-178.01 543.54,-173.86 543.08,-180.85"/>
</g>
<!-- resumed -->
<g id="node4" class="node">
<title>resumed</title>
<ellipse fill="none" stroke="black" cx="405.42" cy="-126" rx="92.88" ry="18"/>
<text text-anchor="middle" x="405.42" y="-122.3" font-family="Times,serif" font-size="14.00">resumed(waiting)</text>
</g>
<!-- cancelled&#45;&gt;resumed -->
<g id="edge5" class="edge">
<title>cancelled&#45;&gt;resumed</title>
<path fill="none" stroke="black" d="M286.96,-126C291.95,-126 296.98,-126 302,-126"/>
<polygon fill="black" stroke="black" points="286.77,-122.5 276.77,-126 286.77,-129.5 286.77,-122.5"/>
<polygon fill="black" stroke="black" points="302.26,-129.5 312.26,-126 302.26,-122.5 302.26,-129.5"/>
</g>
<!-- released -->
<g id="node5" class="node">
<title>released</title>
<ellipse fill="none" stroke="black" cx="405.42" cy="-45" rx="50.09" ry="18"/>
<text text-anchor="middle" x="405.42" y="-41.3" font-family="Times,serif" font-size="14.00">released</text>
</g>
<!-- cancelled&#45;&gt;released -->
<g id="edge3" class="edge">
<title>cancelled&#45;&gt;released</title>
<path fill="none" stroke="black" d="M233.48,-110.29C270.08,-96.31 323.44,-75.93 360.78,-61.67"/>
<polygon fill="black" stroke="black" points="362.29,-64.84 370.38,-58 359.79,-58.3 362.29,-64.84"/>
</g>
<!-- resumed&#45;&gt;flight2 -->
<g id="edge6" class="edge">
<title>resumed&#45;&gt;flight2</title>
<path fill="none" stroke="black" d="M456.81,-141.04C485.54,-149.62 521.04,-160.22 547.75,-168.19"/>
<polygon fill="black" stroke="black" points="546.95,-171.6 557.53,-171.11 548.95,-164.9 546.95,-171.6"/>
</g>
<!-- memory -->
<g id="node7" class="node">
<title>memory</title>
<ellipse fill="none" stroke="black" cx="588.31" cy="-126" rx="48.99" ry="18"/>
<text text-anchor="middle" x="588.31" y="-122.3" font-family="Times,serif" font-size="14.00">memory</text>
</g>
<!-- resumed&#45;&gt;memory -->
<g id="edge7" class="edge">
<title>resumed&#45;&gt;memory</title>
<path fill="none" stroke="black" d="M498.45,-126C508.95,-126 519.41,-126 529.28,-126"/>
<polygon fill="black" stroke="black" points="529.33,-129.5 539.33,-126 529.33,-122.5 529.33,-129.5"/>
</g>
<!-- waiting -->
<g id="node8" class="node">
<title>waiting</title>
<ellipse fill="none" stroke="black" cx="588.31" cy="-72" rx="45.49" ry="18"/>
<text text-anchor="middle" x="588.31" y="-68.3" font-family="Times,serif" font-size="14.00">waiting</text>
</g>
<!-- resumed&#45;&gt;waiting -->
<g id="edge8" class="edge">
<title>resumed&#45;&gt;waiting</title>
<path fill="none" stroke="black" d="M456.81,-110.96C483.39,-103.02 515.75,-93.36 541.6,-85.65"/>
<polygon fill="black" stroke="black" points="542.93,-88.9 551.52,-82.68 540.93,-82.19 542.93,-88.9"/>
</g>
<!-- forgotten -->
<g id="node6" class="node">
<title>forgotten</title>
<ellipse fill="none" stroke="black" cx="588.31" cy="-18" rx="53.89" ry="18"/>
<text text-anchor="middle" x="588.31" y="-14.3" font-family="Times,serif" font-size="14.00">forgotten</text>
</g>
<!-- released&#45;&gt;forgotten -->
<g id="edge4" class="edge">
<title>released&#45;&gt;forgotten</title>
<path fill="none" stroke="black" d="M452.07,-38.19C475.34,-34.71 503.91,-30.45 528.78,-26.74"/>
<polygon fill="black" stroke="black" points="529.45,-30.17 538.83,-25.24 528.42,-23.25 529.45,-30.17"/>
</g>
</g>
</svg>
