<?xml version="1.0" encoding="UTF-8" standalone="no"?>
<!DOCTYPE svg PUBLIC "-//W3C//DTD SVG 1.1//EN"
 "http://www.w3.org/Graphics/SVG/1.1/DTD/svg11.dtd">
<!-- Generated by graphviz version 3.0.0 (20220315.2325)
 -->
<!-- Pages: 1 -->
<svg width="385pt" height="98pt"
 viewBox="0.00 0.00 385.47 98.00" xmlns="http://www.w3.org/2000/svg" xmlns:xlink="http://www.w3.org/1999/xlink">
<g id="graph0" class="graph" transform="scale(1 1) rotate(0) translate(4 94)">
<polygon fill="#ffffff" fill-opacity="0.941176" stroke="transparent" points="-4,4 -4,-94 381.47,-94 381.47,4 -4,4"/>
<!-- memory -->
<g id="node1" class="node">
<title>memory</title>
<ellipse fill="none" stroke="black" cx="48.75" cy="-72" rx="48.99" ry="18"/>
<text text-anchor="middle" x="48.75" y="-68.3" font-family="Times,serif" font-size="14.00">memory</text>
</g>
<!-- released -->
<g id="node2" class="node">
<title>released</title>
<ellipse fill="none" stroke="black" cx="183.54" cy="-45" rx="50.09" ry="18"/>
<text text-anchor="middle" x="183.54" y="-41.3" font-family="Times,serif" font-size="14.00">released</text>
</g>
<!-- memory&#45;&gt;released -->
<g id="edge1" class="edge">
<title>memory&#45;&gt;released</title>
<path fill="none" stroke="black" d="M91.76,-63.46C103.75,-61.02 116.98,-58.33 129.53,-55.78"/>
<polygon fill="black" stroke="black" points="130.32,-59.19 139.42,-53.77 128.93,-52.33 130.32,-59.19"/>
</g>
<!-- forgotten -->
<g id="node4" class="node">
<title>forgotten</title>
<ellipse fill="none" stroke="black" cx="323.53" cy="-45" rx="53.89" ry="18"/>
<text text-anchor="middle" x="323.53" y="-41.3" font-family="Times,serif" font-size="14.00">forgotten</text>
</g>
<!-- released&#45;&gt;forgotten -->
<g id="edge3" class="edge">
<title>released&#45;&gt;forgotten</title>
<path fill="none" stroke="black" d="M233.96,-45C242.1,-45 250.63,-45 259.06,-45"/>
<polygon fill="black" stroke="black" points="259.24,-48.5 269.24,-45 259.24,-41.5 259.24,-48.5"/>
</g>
<!-- error -->
<g id="node3" class="node">
<title>error</title>
<ellipse fill="none" stroke="black" cx="48.75" cy="-18" rx="34.39" ry="18"/>
<text text-anchor="middle" x="48.75" y="-14.3" font-family="Times,serif" font-size="14.00">error</text>
</g>
<!-- error&#45;&gt;released -->
<g id="edge2" class="edge">
<title>error&#45;&gt;released</title>
<path fill="none" stroke="black" d="M81.22,-24.4C95.63,-27.33 113.12,-30.89 129.48,-34.21"/>
<polygon fill="black" stroke="black" points="128.99,-37.68 139.49,-36.25 130.39,-30.82 128.99,-37.68"/>
</g>
</g>
</svg>
