<?xml version="1.0" encoding="UTF-8" standalone="no"?>
<!DOCTYPE svg PUBLIC "-//W3C//DTD SVG 1.1//EN"
 "http://www.w3.org/Graphics/SVG/1.1/DTD/svg11.dtd">
<!-- Generated by graphviz version 2.42.3 (20191010.1750)
 -->
<!-- Title: %3 Pages: 1 -->
<svg width="671pt" height="107pt"
 viewBox="0.00 0.00 670.96 107.00" xmlns="http://www.w3.org/2000/svg" xmlns:xlink="http://www.w3.org/1999/xlink">
<g id="graph0" class="graph" transform="scale(1 1) rotate(0) translate(4 103)">
<title>%3</title>
<polygon fill="#ffffff" fill-opacity="0.941176" stroke="transparent" points="-4,4 -4,-103 666.96,-103 666.96,4 -4,4"/>
<!-- new -->
<g id="node1" class="node">
<title>new</title>
<ellipse fill="none" stroke="black" cx="27" cy="-45" rx="27" ry="18"/>
<text text-anchor="middle" x="27" y="-41.3" font-family="Times,serif" font-size="14.00">new</text>
</g>
<!-- waiting -->
<g id="node2" class="node">
<title>waiting</title>
<ellipse fill="none" stroke="black" cx="127.7" cy="-45" rx="37.89" ry="18"/>
<text text-anchor="middle" x="127.7" y="-41.3" font-family="Times,serif" font-size="14.00">waiting</text>
</g>
<!-- new&#45;&gt;waiting -->
<g id="edge1" class="edge">
<title>new&#45;&gt;waiting</title>
<path fill="none" stroke="black" d="M54.19,-45C62.07,-45 70.97,-45 79.77,-45"/>
<polygon fill="black" stroke="black" points="79.98,-48.5 89.98,-45 79.98,-41.5 79.98,-48.5"/>
</g>
<!-- ready -->
<g id="node3" class="node">
<title>ready</title>
<ellipse fill="none" stroke="black" cx="232.59" cy="-45" rx="31.4" ry="18"/>
<text text-anchor="middle" x="232.59" y="-41.3" font-family="Times,serif" font-size="14.00">ready</text>
</g>
<!-- waiting&#45;&gt;ready -->
<g id="edge2" class="edge">
<title>waiting&#45;&gt;ready</title>
<path fill="none" stroke="black" d="M165.55,-45C173.83,-45 182.67,-45 191.09,-45"/>
<polygon fill="black" stroke="black" points="191.09,-48.5 201.09,-45 191.09,-41.5 191.09,-48.5"/>
</g>
<!-- executing -->
<g id="node4" class="node">
<title>executing</title>
<ellipse fill="none" stroke="black" cx="345.93" cy="-45" rx="46.29" ry="18"/>
<text text-anchor="middle" x="345.93" y="-41.3" font-family="Times,serif" font-size="14.00">executing</text>
</g>
<!-- ready&#45;&gt;executing -->
<g id="edge3" class="edge">
<title>ready&#45;&gt;executing</title>
<path fill="none" stroke="black" d="M264.02,-45C271.88,-45 280.6,-45 289.32,-45"/>
<polygon fill="black" stroke="black" points="289.51,-48.5 299.51,-45 289.51,-41.5 289.51,-48.5"/>
</g>
<!-- long&#45;running -->
<g id="node5" class="node">
<title>long&#45;running</title>
<ellipse fill="none" stroke="black" cx="486.57" cy="-45" rx="58.49" ry="18"/>
<text text-anchor="middle" x="486.57" y="-41.3" font-family="Times,serif" font-size="14.00">long&#45;running</text>
</g>
<!-- executing&#45;&gt;long&#45;running -->
<g id="edge4" class="edge">
<title>executing&#45;&gt;long&#45;running</title>
<path fill="none" stroke="black" d="M392.33,-45C400.5,-45 409.18,-45 417.83,-45"/>
<polygon fill="black" stroke="black" points="417.93,-48.5 427.93,-45 417.93,-41.5 417.93,-48.5"/>
</g>
<!-- memory -->
<g id="node6" class="node">
<title>memory</title>
<ellipse fill="none" stroke="black" cx="622.02" cy="-81" rx="40.89" ry="18"/>
<text text-anchor="middle" x="622.02" y="-77.3" font-family="Times,serif" font-size="14.00">memory</text>
</g>
<!-- executing&#45;&gt;memory -->
<g id="edge5" class="edge">
<title>executing&#45;&gt;memory</title>
<path fill="none" stroke="black" d="M378.78,-57.85C393.53,-63.21 411.44,-68.9 428.08,-72 476.05,-80.92 531.81,-82.61 571.02,-82.4"/>
<polygon fill="black" stroke="black" points="571.15,-85.9 581.11,-82.31 571.08,-78.9 571.15,-85.9"/>
</g>
<!-- error -->
<g id="node7" class="node">
<title>error</title>
<ellipse fill="none" stroke="black" cx="622.02" cy="-18" rx="28.7" ry="18"/>
<text text-anchor="middle" x="622.02" y="-14.3" font-family="Times,serif" font-size="14.00">error</text>
</g>
<!-- executing&#45;&gt;error -->
<g id="edge6" class="edge">
<title>executing&#45;&gt;error</title>
<path fill="none" stroke="black" d="M378.33,-31.94C393.14,-26.46 411.23,-20.73 428.08,-18 481.54,-9.34 544.43,-11.62 583.51,-14.47"/>
<polygon fill="black" stroke="black" points="583.39,-17.97 593.64,-15.26 583.94,-11 583.39,-17.97"/>
</g>
<!-- long&#45;running&#45;&gt;memory -->
<g id="edge7" class="edge">
<title>long&#45;running&#45;&gt;memory</title>
<path fill="none" stroke="black" d="M531.27,-56.79C545.84,-60.72 562.09,-65.1 576.71,-69.05"/>
<polygon fill="black" stroke="black" points="575.97,-72.47 586.53,-71.7 577.79,-65.71 575.97,-72.47"/>
</g>
<!-- long&#45;running&#45;&gt;error -->
<g id="edge8" class="edge">
<title>long&#45;running&#45;&gt;error</title>
<path fill="none" stroke="black" d="M536.13,-35.18C552.11,-31.94 569.6,-28.4 584.53,-25.38"/>
<polygon fill="black" stroke="black" points="585.3,-28.8 594.41,-23.38 583.91,-21.94 585.3,-28.8"/>
</g>
</g>
</svg>
