<?xml version="1.0" encoding="UTF-8" standalone="no"?>
<!DOCTYPE svg PUBLIC "-//W3C//DTD SVG 1.1//EN"
 "http://www.w3.org/Graphics/SVG/1.1/DTD/svg11.dtd">
<!-- Generated by graphviz version 2.42.3 (20191010.1750)
 -->
<!-- Title: %3 Pages: 1 -->
<svg width="369pt" height="44pt"
 viewBox="0.00 0.00 368.88 44.00" xmlns="http://www.w3.org/2000/svg" xmlns:xlink="http://www.w3.org/1999/xlink">
<g id="graph0" class="graph" transform="scale(1 1) rotate(0) translate(4 40)">
<title>%3</title>
<polygon fill="#ffffff" fill-opacity="0.941176" stroke="transparent" points="-4,4 -4,-40 364.88,-40 364.88,4 -4,4"/>
<!-- new -->
<g id="node1" class="node">
<title>new</title>
<ellipse fill="none" stroke="black" cx="27" cy="-18" rx="27" ry="18"/>
<text text-anchor="middle" x="27" y="-14.3" font-family="Times,serif" font-size="14.00">new</text>
</g>
<!-- fetch -->
<g id="node2" class="node">
<title>fetch</title>
<ellipse fill="none" stroke="black" cx="118.6" cy="-18" rx="28.7" ry="18"/>
<text text-anchor="middle" x="118.6" y="-14.3" font-family="Times,serif" font-size="14.00">fetch</text>
</g>
<!-- new&#45;&gt;fetch -->
<g id="edge1" class="edge">
<title>new&#45;&gt;fetch</title>
<path fill="none" stroke="black" d="M54.4,-18C62.32,-18 71.18,-18 79.7,-18"/>
<polygon fill="black" stroke="black" points="79.83,-21.5 89.83,-18 79.83,-14.5 79.83,-21.5"/>
</g>
<!-- flight -->
<g id="node3" class="node">
<title>flight</title>
<ellipse fill="none" stroke="black" cx="213.09" cy="-18" rx="29.8" ry="18"/>
<text text-anchor="middle" x="213.09" y="-14.3" font-family="Times,serif" font-size="14.00">flight</text>
</g>
<!-- fetch&#45;&gt;flight -->
<g id="edge2" class="edge">
<title>fetch&#45;&gt;flight</title>
<path fill="none" stroke="black" d="M145.86,-11.84C154.8,-11.28 164.98,-11.12 174.62,-11.36"/>
<polygon fill="black" stroke="black" points="174.67,-14.86 184.8,-11.78 174.96,-7.87 174.67,-14.86"/>
</g>
<!-- flight&#45;&gt;fetch -->
<g id="edge3" class="edge">
<title>flight&#45;&gt;fetch</title>
<path fill="none" stroke="black" d="M184.8,-24.22C175.77,-24.75 165.57,-24.88 155.96,-24.61"/>
<polygon fill="black" stroke="black" points="156,-21.11 145.86,-24.16 155.69,-28.1 156,-21.11"/>
</g>
<!-- memory -->
<g id="node4" class="node">
<title>memory</title>
<ellipse fill="none" stroke="black" cx="319.94" cy="-18" rx="40.89" ry="18"/>
<text text-anchor="middle" x="319.94" y="-14.3" font-family="Times,serif" font-size="14.00">memory</text>
</g>
<!-- flight&#45;&gt;memory -->
<g id="edge4" class="edge">
<title>flight&#45;&gt;memory</title>
<path fill="none" stroke="black" d="M243.02,-18C250.95,-18 259.78,-18 268.54,-18"/>
<polygon fill="black" stroke="black" points="268.73,-21.5 278.73,-18 268.73,-14.5 268.73,-21.5"/>
</g>
</g>
</svg>
